<?xml version="1.0" encoding="UTF-8" standalone="no"?>
<!DOCTYPE svg PUBLIC "-//W3C//DTD SVG 1.1//EN" "http://www.w3.org/Graphics/SVG/1.1/DTD/svg11.dtd">
<!-- Generated by Microsoft Visio, SVG Export HA-Architecture.svg Multi-region -->
<svg xmlns="http://www.w3.org/2000/svg" xmlns:xlink="http://www.w3.org/1999/xlink" xmlns:ev="http://www.w3.org/2001/xml-events"
		xmlns:v="http://schemas.microsoft.com/visio/2003/SVGExtensions/" width="11in" height="8.5in" viewBox="0 0 792 612"
		xml:space="preserve" color-interpolation-filters="sRGB" class="st52">
	<v:documentProperties v:langID="1033" v:viewMarkup="false">
		<v:userDefs>
			<v:ud v:nameU="msvNoAutoConnect" v:val="VT0(1):26"/>
			<v:ud v:nameU="msvWarnOnPersonalInfo" v:val="VT0(1):5"/>
		</v:userDefs>
	</v:documentProperties>

	<style type="text/css">
	<![CDATA[
		.st1 {stroke:#0078d7;stroke-linecap:round;stroke-linejoin:round;stroke-width:1}
		.st2 {marker-end:url(#mrkr4-12);stroke:#0078d7;stroke-linecap:round;stroke-linejoin:round;stroke-width:0.75}
		.st3 {fill:#0078d7;fill-opacity:1;stroke:#0078d7;stroke-opacity:1;stroke-width:0.29411764705882}
		.st4 {marker-end:url(#mrkr4-18);stroke:#7f7f7f;stroke-dasharray:2.25,2.25;stroke-linecap:round;stroke-linejoin:round;stroke-width:0.75}
		.st5 {fill:#7f7f7f;fill-opacity:1;stroke:#7f7f7f;stroke-opacity:1;stroke-width:0.22935779816514}
		.st6 {fill:#ffffff;stroke:#3f3f3f;stroke-linecap:butt;stroke-width:0.75}
		.st7 {fill:#3f3f3f;font-family:Segoe UI;font-size:0.75em}
		.st8 {fill:#ffffff;stroke:none;stroke-linecap:butt;stroke-width:0.772727}
		.st9 {fill:#0078d7;stroke:none;stroke-linecap:butt;stroke-width:0.772727}
		.st10 {fill:#0078d7;font-family:Segoe UI;font-size:0.75em}
		.st11 {fill:#ecf3fb;stroke:none;stroke-linecap:round;stroke-linejoin:round;stroke-width:0.75}
		.st12 {fill:#000000;font-family:Segoe UI Semibold;font-size:0.75em}
		.st13 {fill:#f2f2f2;stroke:#595959;stroke-linecap:round;stroke-linejoin:round;stroke-width:0.5}
		.st14 {fill:#ffffff;stroke:#ffffff;stroke-linecap:butt;stroke-width:1.275}
		.st15 {fill:#0078d7;stroke:none;stroke-linecap:butt;stroke-width:0.6375}
		.st16 {fill:#ffffff;stroke:#595959;stroke-linecap:round;stroke-linejoin:round;stroke-width:0.5}
		.st17 {font-size:1em}
		.st18 {fill:#ffffff;stroke:#ffffff;stroke-linecap:butt;stroke-width:1.5}
		.st19 {fill:#0078d7;stroke:none;stroke-linecap:butt;stroke-width:0.75}
		.st20 {fill:#0078d7;font-family:Segoe UI;font-size:0.499992em}
		.st21 {fill:#ffffff;stroke:none;stroke-linecap:butt;stroke-width:0.75}
		.st22 {fill:#ffffff;fill-opacity:0.6;stroke:none;stroke-linecap:butt;stroke-width:0.75}
		.st23 {fill:#ffffff;stroke:#ffffff;stroke-linecap:round;stroke-linejoin:round;stroke-width:0.75}
		.st24 {fill:#0078d7;stroke:none;stroke-linecap:round;stroke-linejoin:round;stroke-width:0.75}
		.st25 {stroke:#0070c0;stroke-linecap:round;stroke-linejoin:round;stroke-width:0.75}
		.st26 {fill:none;stroke:none;stroke-linecap:round;stroke-linejoin:round;stroke-width:0.75}
		.st27 {fill:#0070c0;font-family:Calibri;font-size:0.833336em}
		.st28 {fill:#4f4f57;stroke:#000000;stroke-linecap:butt;stroke-width:0.075}
		.st29 {fill:#010004;stroke:none;stroke-linecap:butt;stroke-width:0.75}
		.st30 {fill:#35702b;stroke:#000000;stroke-linecap:butt;stroke-width:0.225}
		.st31 {fill:#fcab50;stroke:none;stroke-linecap:butt;stroke-width:0.75}
		.st32 {fill:#d5d5d5;stroke:none;stroke-linecap:butt;stroke-width:0.75}
		.st33 {fill:#35702b;stroke:none;stroke-linecap:butt;stroke-width:0.75}
		.st34 {fill:#51b145;stroke:none;stroke-linecap:butt;stroke-width:0.75}
		.st35 {fill:#ffffff;fill-opacity:0.2;stroke:none;stroke-linecap:butt;stroke-width:0.75}
		.st36 {fill:none;stroke:#000000;stroke-linecap:butt;stroke-width:0.375}
		.st37 {fill:#011315;stroke:none;stroke-linecap:butt;stroke-width:0.75}
		.st38 {fill:#2d2d2d;stroke:none;stroke-linecap:butt;stroke-width:0.75}
		.st39 {fill:#000107;stroke:none;stroke-linecap:butt;stroke-width:0.75}
		.st40 {fill:#000000;fill-opacity:0.2;stroke:none;stroke-linecap:butt;stroke-width:0.75}
		.st41 {fill:#000000;stroke:none;stroke-linecap:butt;stroke-width:0.75}
		.st42 {fill:#011315;stroke:none;stroke-linecap:butt;stroke-width:0.749971}
		.st43 {fill:#050505;stroke:none;stroke-linecap:butt;stroke-width:0.75}
		.st44 {fill:#818c90;stroke:none;stroke-linecap:butt;stroke-width:0.75}
		.st45 {fill:#afafaf;stroke:none;stroke-linecap:butt;stroke-width:0.75}
		.st46 {fill:#030000;stroke:none;stroke-linecap:butt;stroke-width:0.75}
		.st47 {fill:#707070;stroke:none;stroke-linecap:butt;stroke-width:0.75}
		.st48 {fill:#dcc287;stroke:none;stroke-linecap:butt;stroke-width:0.75}
		.st49 {fill:#ffffff;stroke:#000000;stroke-linecap:round;stroke-linejoin:round;stroke-width:0.75}
		.st50 {fill:#000000}
		.st51 {stroke:#000000;stroke-linecap:round;stroke-linejoin:round;stroke-width:0.75}
		.st52 {fill:none;fill-rule:evenodd;font-size:12px;overflow:visible;stroke-linecap:square;stroke-miterlimit:3}
	]]>
	</style>

	<defs id="Markers">
		<g id="lend4">
			<path d="M 2 1 L 0 0 L 2 -1 L 2 1 " style="stroke:none"/>
		</g>
		<marker id="mrkr4-12" class="st3" v:arrowType="4" v:arrowSize="1" v:setback="6.8" refX="-6.8" orient="auto"
				markerUnits="strokeWidth" overflow="visible">
			<use xlink:href="#lend4" transform="scale(-3.4,-3.4) "/>
		</marker>
		<marker id="mrkr4-18" class="st5" v:arrowType="4" v:arrowSize="2" v:setback="8.72" refX="-8.72" orient="auto"
				markerUnits="strokeWidth" overflow="visible">
			<use xlink:href="#lend4" transform="scale(-4.36,-4.36) "/>
		</marker>
	</defs>
	<g v:mID="0" v:index="3" v:groupContext="foregroundPage">
		<title>Multi-region</title>
		<v:pageProperties v:drawingScale="1" v:pageScale="1" v:drawingUnits="19" v:shadowOffsetX="9" v:shadowOffsetY="-9"/>
		<v:layer v:name="000-All" v:index="0"/>
		<v:layer v:name="Connector" v:index="1"/>
		<v:layer v:name="Container" v:index="2"/>
		<v:layer v:name="Azure" v:index="3"/>
		<v:layer v:name="Vehicles" v:index="4"/>
		<g id="shape6-1" v:mID="6" v:groupContext="shape" transform="translate(916.943,148.5) rotate(90)">
			<title>Sheet.6</title>
			<path d="M0 612 C18.15 612 35.12 612 51.8 612 C89.36 612 125.47 612 169 612" class="st1"/>
		</g>
		<g id="shape7-4" v:mID="7" v:groupContext="shape" transform="translate(279,-367.875)">
			<title>Sheet.7</title>
			<path d="M0 612 C2.79 612 5.39 612 7.95 612 C13.72 612 19.26 612 25.94 612" class="st1"/>
		</g>
		<g id="shape1251-7" v:mID="1251" v:groupContext="shape" transform="translate(199,-367.875)">
			<title>Sheet.1251</title>
			<path d="M0 612 L32.15 612" class="st2"/>
		</g>
		<g id="shape1253-13" v:mID="1253" v:groupContext="shape" transform="translate(797.534,256.723) rotate(90.2443)">
			<title>Sheet.1253</title>
			<path d="M0 612 C3.52 612 6.81 612 10.04 612 C15.36 612 20.53 612 26.22 612" class="st4"/>
		</g>
		<g id="shape1254-19" v:mID="1254" v:groupContext="shape" transform="translate(162,-358.429)">
			<title>Internet white (opaque)</title>
			<desc>Internet</desc>
			<v:textBlock v:margins="rect(0,0,0,0)" v:verticalAlign="2"/>
			<v:textRect cx="24.5489" cy="595.502" width="71.32" height="28.8"/>
			<path d="M40.92 612 L7.12 612 C3.19 612 0 608.4 0 603.97 C0 599.53 3.19 595.93 7.12 595.93 C7.4 595.93 7.67 595.95 7.96
						 595.99 C9.13 593.89 11.16 592.61 13.36 592.61 C13.96 592.61 14.56 592.71 15.15 592.92 C15.15 592.82 15.15
						 592.73 15.15 592.63 C15.15 587.43 18.89 583.2 23.49 583.2 C26.73 583.2 29.65 585.36 31 588.66 C32.2 587.89
						 33.55 587.49 34.93 587.49 C39.36 587.49 42.97 591.56 42.97 596.56 C42.97 597.05 42.93 597.54 42.86 598.05
						 C45.24 599.19 46.8 601.79 46.8 604.72 C46.8 608.11 44.75 610.99 41.89 611.8 L40.92 612 Z" class="st6"/>
			<text x="8.94" y="607.2" class="st7" v:langID="1033"><v:paragraph v:horizAlign="1"/><v:tabList/>Internet</text>		</g>
		<g id="group1263-22" transform="translate(171,-296.329)" v:mID="1263" v:groupContext="group">
			<title>DNS (opaque).1055</title>
			<desc>Azure DNS</desc>
			<g id="shape1264-23" v:mID="1264" v:groupContext="shape">
				<title>XMLID_18_</title>
				<path d="M14.4 612 L14.28 612 C10.54 612 6.98 610.5 4.24 607.81 L3.37 606.88 C3.3 606.81 3.24 606.75 3.24 606.69
							 L3.12 606.56 C1.12 604.07 0 600.88 0 597.69 C0 594.51 1.06 591.32 3.05 588.76 L3.12 588.64 L3.18 588.57
							 C3.18 588.51 3.24 588.51 3.3 588.45 L4.24 587.45 C6.92 584.76 10.41 583.26 14.28 583.2 L14.4 583.2 C18.26
							 583.2 21.82 584.7 24.56 587.45 L25.43 588.39 C25.5 588.45 25.56 588.51 25.56 588.57 L25.68 588.7 C27.68
							 591.2 28.8 594.38 28.8 597.57 C28.8 600.82 27.68 604 25.68 606.38 L25.56 606.5 C25.56 606.56 25.5 606.63
							 25.43 606.69 L24.56 607.63 C21.82 610.5 18.2 612 14.4 612 Z" class="st8"/>
			</g>
			<g id="group1265-25" transform="translate(0.561039,-0.499783)" v:mID="1265" v:groupContext="group">
				<title>XMLID_3_</title>
				<g id="shape1266-26" v:mID="1266" v:groupContext="shape">
					<title>XMLID_9_</title>
					<path d="M27.62 598.26 C27.62 595.19 26.56 592.2 24.62 589.76 L24.5 589.63 C24.44 589.57 24.44 589.51 24.37 589.45
								 L23.5 588.51 C20.95 585.89 17.52 584.45 13.84 584.45 L13.71 584.45 C10.1 584.51 6.73 585.89 4.11
								 588.45 L3.18 589.45 C3.12 589.51 3.12 589.57 3.05 589.63 L2.93 589.7 C1.06 592.13 0 595.13 0 598.26
								 C0 601.32 1.06 604.32 2.99 606.75 L3.12 606.88 C3.18 606.94 3.18 607 3.24 607.06 L4.11 608 C6.67
								 610.56 10.04 612 13.71 612 L13.84 612 C17.45 612 20.95 610.56 23.5 608 L24.37 607 C24.44 606.94
								 24.44 606.88 24.5 606.81 L24.62 606.69 C26.56 604.38 27.62 601.32 27.62 598.26 ZM22.01 589.26 C21.94
								 589.26 21.88 589.32 21.82 589.32 C21.69 589.38 21.57 589.45 21.57 589.45 C21.32 589.57 21.07 589.63
								 20.82 589.7 C20.76 589.7 20.7 589.76 20.63 589.76 C20.32 589.88 20.01 589.95 19.7 590.01 C19.64
								 590.01 19.51 590.07 19.45 590.07 C18.95 588.76 18.33 587.57 17.64 586.7 C19.26 587.26 20.76 588.14
								 22.01 589.26 ZM13.71 586.07 C15.27 586.07 16.77 587.7 17.89 590.45 C16.64 590.7 15.27 590.76 13.84
								 590.76 C12.41 590.76 10.97 590.63 9.66 590.45 C10.72 587.7 12.22 586.14 13.71 586.07 ZM9.79 586.76
								 C9.1 587.64 8.54 588.76 8.04 590.07 L7.92 590.07 C7.61 589.95 7.23 589.88 6.98 589.82 C6.92 589.82
								 6.86 589.76 6.79 589.76 C6.55 589.63 6.3 589.51 6.11 589.45 C5.98 589.38 5.92 589.38 5.86 589.32
								 C5.8 589.26 5.74 589.26 5.61 589.2 C6.92 588.2 8.29 587.26 9.79 586.76 ZM5.61 607.25 C5.67 607.25
								 5.74 607.19 5.8 607.19 C5.92 607.13 5.98 607.13 6.05 607.06 C6.3 606.94 6.55 606.88 6.79 606.81
								 C6.86 606.81 6.92 606.75 6.98 606.75 C7.29 606.63 7.61 606.56 7.92 606.5 L8.04 606.5 C8.54 607.75
								 9.16 608.94 9.79 609.81 C8.29 609.19 6.86 608.31 5.61 607.25 ZM13.78 610.44 C12.22 610.38 10.72
								 608.81 9.66 606.13 C10.97 605.88 12.41 605.82 13.84 605.82 C15.27 605.82 16.58 605.94 17.89 606.13
								 C16.83 608.81 15.27 610.44 13.78 610.44 ZM17.7 609.75 C18.39 608.88 19.01 607.69 19.51 606.38 C19.57
								 606.38 19.7 606.44 19.76 606.44 C20.07 606.56 20.45 606.63 20.7 606.69 C20.76 606.69 20.82 606.75
								 20.88 606.75 C21.13 606.88 21.38 606.94 21.63 607 C21.76 607.06 21.82 607.06 21.88 607.13 C21.94
								 607.13 22.01 607.19 22.13 607.25 C20.76 608.38 19.26 609.25 17.7 609.75 ZM23.25 605.94 C23.06 605.94
								 23 605.88 22.82 605.82 C22.63 605.75 22.44 605.63 22.25 605.57 C22.19 605.57 22.13 605.5 22.07 605.5
								 C21.38 605.25 20.7 605.07 19.95 604.82 C20.14 604.13 20.26 603.5 20.38 602.82 L18.76 602.82 C18.64
								 603.44 18.51 604 18.39 604.44 C16.96 604.19 15.4 604.07 13.84 604.07 C12.22 604.07 10.66 604.25
								 9.16 604.5 C8.98 603.94 8.91 603.38 8.79 602.82 L7.17 602.82 C7.29 603.5 7.42 604.19 7.61 604.88
								 C6.92 605.07 6.3 605.25 5.67 605.5 C5.61 605.57 5.49 605.57 5.42 605.63 C5.24 605.69 5.05 605.82
								 4.86 605.88 C4.74 605.88 4.61 605.94 4.49 606 C2.87 604 1.93 601.57 1.75 599.01 L3.12 599.01 L3.12
								 597.38 L1.75 597.38 C1.93 594.82 2.87 592.45 4.43 590.51 L4.49 590.45 C4.61 590.51 4.74 590.57 4.86
								 590.63 C5.11 590.76 5.24 590.82 5.49 590.88 C5.55 590.88 5.61 590.95 5.67 590.95 C6.3 591.2 6.92
								 591.38 7.67 591.57 C7.48 592.2 7.42 592.76 7.29 593.38 L8.91 593.38 C9.04 592.88 9.16 592.32 9.23
								 591.88 C10.72 592.13 12.28 592.32 13.9 592.32 C15.52 592.32 17.02 592.13 18.45 591.95 C18.58 592.38
								 18.7 592.88 18.76 593.45 L20.38 593.45 C20.26 592.82 20.14 592.26 20.01 591.63 C20.7 591.45 21.38
								 591.26 22.07 590.95 C22.13 590.95 22.25 590.88 22.32 590.88 C22.57 590.82 22.69 590.7 22.94 590.63
								 C23.06 590.57 23.19 590.51 23.31 590.45 C24.94 592.45 25.87 594.88 26.06 597.38 L24.44 597.38 L24.44
								 599.01 L26.06 599.01 C25.75 601.57 24.81 604.07 23.25 605.94 Z" class="st9"/>
				</g>
				<g id="shape1267-28" v:mID="1267" v:groupContext="shape" transform="translate(4.55065,-10.1206)">
					<title>XMLID_6_</title>
					<path d="M5.8 608.25 C5.8 608.94 5.67 609.44 5.55 609.88 C5.36 610.31 5.11 610.69 4.86 611.06 C4.55 611.31 4.18
								 611.56 3.68 611.75 C3.24 611.88 2.68 612 2.06 612 L0.37 612 C0.25 612 0.12 611.94 0.06 611.88 C-0
								 611.81 0 611.63 0 611.5 L0 605.25 C0 605.07 0.06 605 0.12 604.94 C0.19 604.88 0.31 604.82 0.44 604.82
								 L2.24 604.82 C2.93 604.82 3.43 604.88 3.86 605.07 C4.3 605.25 4.68 605.44 4.99 605.75 C5.3 606.07
								 5.55 606.44 5.67 606.88 C5.74 607.19 5.8 607.69 5.8 608.25 ZM4.3 608.31 C4.3 608 4.24 607.63 4.18
								 607.38 C4.11 607.13 3.93 606.81 3.8 606.63 C3.68 606.44 3.43 606.25 3.12 606.13 C2.87 606 2.49 605.94
								 1.99 605.94 L1.37 605.94 L1.37 610.81 L2.12 610.81 C2.49 610.81 2.81 610.75 3.12 610.63 C3.37 610.5
								 3.62 610.38 3.8 610.19 C3.99 609.94 4.11 609.75 4.18 609.44 C4.3 609.06 4.3 608.69 4.3 608.31 Z"
							class="st9"/>
				</g>
				<g id="shape1268-30" v:mID="1268" v:groupContext="shape" transform="translate(11.3455,-10.1206)">
					<title>XMLID_5_</title>
					<path d="M6.05 611.38 C6.05 611.5 6.05 611.56 5.98 611.63 C5.92 611.69 5.92 611.75 5.86 611.81 C5.8 611.88 5.74
								 611.88 5.67 611.94 C5.61 611.94 5.55 612 5.42 612 L4.8 612 C4.68 612 4.55 612 4.49 611.94 C4.36
								 611.94 4.3 611.88 4.24 611.75 C4.18 611.69 4.05 611.56 3.99 611.5 C3.93 611.38 3.8 611.25 3.74 611.06
								 L1.99 607.75 C1.87 607.5 1.75 607.38 1.68 607.06 C1.56 606.81 1.43 606.63 1.43 606.38 C1.43 606.63
								 1.43 606.94 1.5 607.13 L1.5 611.69 L1.43 611.81 C1.43 611.88 1.37 611.88 1.31 611.88 C1.25 611.88
								 1.18 611.94 1.06 611.94 L0.37 611.94 C0.25 611.94 0.19 611.94 0.12 611.88 C0.06 611.88 0.06 611.81
								 0 611.81 L0 605.32 C0 605.13 0.06 605.07 0.19 604.94 C0.31 604.82 0.44 604.82 0.56 604.82 L1.31
								 604.82 C1.5 604.82 1.56 604.82 1.62 604.88 C1.75 604.88 1.81 604.94 1.87 605 C1.93 605.07 2.06 605.13
								 2.12 605.25 C2.18 605.38 2.24 605.5 2.37 605.63 L3.74 608.19 C3.8 608.38 3.93 608.5 3.99 608.63
								 C4.05 608.81 4.18 608.94 4.24 609.06 C4.3 609.25 4.43 609.31 4.49 609.5 C4.55 609.69 4.61 609.75
								 4.74 609.94 L4.74 605 L4.8 604.88 C4.8 604.82 4.86 604.82 4.92 604.82 C4.99 604.82 5.05 604.75 5.17
								 604.75 L5.86 604.75 C5.98 604.75 6.05 604.75 6.11 604.82 C6.17 604.82 6.17 604.88 6.23 604.88 L6.23
								 611.38 L6.05 611.38 Z" class="st9"/>
				</g>
				<g id="shape1269-32" v:mID="1269" v:groupContext="shape" transform="translate(18.4519,-9.99566)">
					<title>XMLID_4_</title>
					<path d="M4.74 609.69 C4.74 610.06 4.68 610.38 4.49 610.69 C4.3 611 4.18 611.19 3.93 611.38 C3.68 611.56 3.43
								 611.69 3.12 611.81 C2.81 611.94 2.43 612 2.06 612 C1.81 612 1.56 612 1.37 611.94 C1.18 611.88 1
								 611.81 0.81 611.75 C0.62 611.69 0.56 611.63 0.44 611.56 C0.31 611.5 0.25 611.44 0.19 611.38 C0.12
								 611.31 0.12 611.25 0.06 611.13 C0.06 611 0 610.88 0 610.75 L0 610.5 C0 610.44 -0 610.31 0.06 610.31
								 C0.06 610.25 0.12 610.25 0.12 610.19 C0.12 610.19 0.19 610.13 0.25 610.13 C0.31 610.13 0.37 610.19
								 0.5 610.25 C0.62 610.31 0.75 610.38 0.87 610.5 C1.06 610.56 1.18 610.69 1.43 610.75 C1.68 610.81
								 1.87 610.88 2.12 610.88 C2.31 610.88 2.43 610.88 2.62 610.81 C2.81 610.75 2.87 610.69 2.93 610.63
								 C3.05 610.56 3.12 610.44 3.18 610.38 C3.24 610.25 3.24 610.13 3.24 610 C3.24 609.81 3.18 609.75
								 3.12 609.56 L2.81 609.25 C2.62 609.13 2.56 609.06 2.31 609 C2.12 608.94 1.93 608.81 1.75 608.75
								 C1.56 608.63 1.37 608.56 1.18 608.5 C1 608.38 0.87 608.25 0.69 608.13 C0.5 607.94 0.44 607.81 0.37
								 607.56 C0.25 607.31 0.25 607.13 0.25 606.81 C0.25 606.5 0.31 606.13 0.44 605.94 C0.56 605.69 0.69
								 605.44 0.94 605.25 C1.18 605.07 1.37 605 1.68 604.88 C1.93 604.75 2.31 604.75 2.62 604.75 C2.81
								 604.75 2.93 604.75 3.12 604.82 C3.3 604.82 3.43 604.88 3.62 604.94 C3.8 605 3.86 605.07 3.99 605.13
								 C4.11 605.19 4.18 605.25 4.24 605.25 L4.3 605.38 C4.3 605.38 4.3 605.44 4.36 605.5 L4.36 606.31
								 C4.36 606.38 4.3 606.38 4.3 606.44 C4.3 606.44 4.24 606.5 4.18 606.5 C4.11 606.5 4.05 606.5 3.99
								 606.44 L3.68 606.25 C3.55 606.19 3.43 606.13 3.24 606.07 C3.05 606 2.93 606 2.68 606 C2.49 606 2.43
								 606 2.31 606.07 C2.18 606.13 2.06 606.19 2.06 606.25 C1.99 606.31 1.93 606.44 1.87 606.5 C1.81 606.63
								 1.81 606.75 1.81 606.75 C1.81 606.94 1.87 607 1.93 607.13 L2.24 607.44 C2.43 607.56 2.56 607.63
								 2.74 607.69 C2.93 607.75 3.12 607.88 3.3 607.94 C3.49 608.06 3.68 608.13 3.86 608.19 C4.05 608.31
								 4.18 608.44 4.36 608.56 C4.55 608.75 4.61 608.88 4.68 609.13 C4.68 609.13 4.74 609.38 4.74 609.69
								 Z" class="st9"/>
				</g>
			</g>
			<g id="shape1263-34" v:mID="1263" v:groupContext="groupContent">
				<v:textBlock v:margins="rect(0,0,0,0)" v:verticalAlign="0"/>
				<v:textRect cx="14.4" cy="617.402" width="45.57" height="10.8036"/>
				<text x="-7.15" y="620.1" class="st10" v:langID="1033"><v:paragraph v:horizAlign="1"/><v:tabList/>Azure DNS</text>			</g>
		</g>
		<g id="group1366-36" transform="translate(322.688,-373.5)" v:mID="1366" v:groupContext="group">
			<title>Sheet.1366</title>
			<g id="shape13-37" v:mID="13" v:groupContext="shape">
				<title>Sheet.13</title>
				<desc>Active region</desc>
				<v:textBlock v:margins="rect(4,4,4,4)" v:verticalAlign="0"/>
				<v:textRect cx="117.656" cy="525.011" width="235.32" height="164.352"/>
				<rect x="0" y="445.5" width="235.312" height="166.5" class="st11"/>
				<text x="90.55" y="454.94" class="st12" v:langID="1033"><v:paragraph v:horizAlign="1"/><v:tabList/>Active region</text>			</g>
			<g id="shape1272-40" v:mID="1272" v:groupContext="shape" transform="translate(17.7227,-32.9267)">
				<title>Sheet.1272</title>
				<rect x="0" y="517.5" width="185.098" height="94.5" class="st13"/>
			</g>
			<g id="group1286-42" transform="translate(99.1877,-64.2562)" v:mID="1286" v:groupContext="group">
				<title>Storage queue (opaque)</title>
				<desc>Queue</desc>
				<g id="shape1287-43" v:mID="1287" v:groupContext="shape" transform="translate(0,1202.37) scale(1,-1)">
					<title>Sheet.1287</title>
					<path d="M18.73 612 L6.2 612 L0 601.18 L6.27 590.37 L18.73 590.37 L24.93 601.18 L18.73 612 Z" class="st14"/>
				</g>
				<g id="group1288-45" v:mID="1288" v:groupContext="group">
					<title>Sheet.1288</title>
					<g id="shape1289-46" v:mID="1289" v:groupContext="shape" transform="translate(13.9831,1211.67) scale(1,-1)">
						<title>Sheet.1289</title>
						<path d="M5.41 612 L0 612 L2.7 609.89 L5.41 612 Z" class="st15"/>
					</g>
					<g id="shape1290-48" v:mID="1290" v:groupContext="shape" transform="translate(5.73835,1212.46) scale(1,-1)">
						<title>Sheet.1290</title>
						<path d="M2.7 609.89 C2.64 609.89 2.57 609.89 2.51 609.96 L0 611.93 L0 608.7 L5.74 608.7 L5.74 612 L2.97
									 609.96 C2.9 609.89 2.77 609.89 2.7 609.89 Z" class="st15"/>
					</g>
					<g id="shape1291-50" v:mID="1291" v:groupContext="shape" transform="translate(13.8512,1212.46) scale(1,-1)">
						<title>Sheet.1291</title>
						<path d="M2.84 609.89 C2.77 609.89 2.64 609.89 2.57 609.96 L0 611.93 L0 608.7 L5.74 608.7 L5.74 612 L3.03
									 609.96 C2.97 609.89 2.9 609.89 2.84 609.89 Z" class="st15"/>
					</g>
					<g id="shape1292-52" v:mID="1292" v:groupContext="shape" transform="translate(0,1202.37) scale(1,-1)">
						<title>Sheet.1292</title>
						<path d="M18.73 612 L6.2 612 L0 601.18 L6.27 590.37 L18.73 590.37 L24.93 601.18 L18.73 612 ZM20.91 596.57
									 L3.83 596.57 C3.3 596.57 2.9 597.03 2.9 597.56 L2.9 604.09 C2.9 604.61 3.3 605.07 3.83 605.07
									 L20.91 605.07 C21.11 605.07 21.44 605.07 23.68 600.85 L23.74 600.66 L23.68 600.52 C21.44 596.57
									 21.11 596.57 20.91 596.57 Z" class="st15"/>
					</g>
					<g id="shape1293-54" v:mID="1293" v:groupContext="shape" transform="translate(5.67239,1211.67) scale(1,-1)">
						<title>Sheet.1293</title>
						<path d="M5.47 612 L0 612 L2.7 609.89 L5.47 612 Z" class="st15"/>
					</g>
					<g id="shape1294-56" v:mID="1294" v:groupContext="shape" transform="translate(3.56174,1210.02) scale(1,-1)">
						<title>Sheet.1294</title>
						<path d="M0.26 612 C0.13 612 0 611.87 0 611.74 L0 605.21 C-0 605.07 0.13 604.88 0.26 604.88 L17.22 604.88
									 C17.54 605.21 18.53 606.79 19.39 608.31 C18.53 609.96 17.48 611.67 17.22 612 L0.26 612 ZM8.57
									 605.93 C8.57 605.73 8.38 605.54 8.11 605.54 L1.65 605.54 C1.45 605.54 1.39 605.73 1.39 605.93
									 L1.39 610.75 C1.39 610.94 1.45 611.01 1.65 611.01 L8.11 611.01 C8.31 611.01 8.57 610.94 8.57
									 610.75 L8.57 605.93 ZM16.69 605.93 C16.69 605.73 16.56 605.54 16.36 605.54 L9.96 605.54 C9.76
									 605.54 9.63 605.73 9.63 605.93 L9.63 610.75 C9.63 610.94 9.76 611.01 9.96 611.01 L16.36 611.01
									 C16.56 611.01 16.69 610.94 16.69 610.75 L16.69 605.93 Z" class="st15"/>
					</g>
				</g>
				<g id="shape1286-58" v:mID="1286" v:groupContext="groupContent">
					<v:textBlock v:margins="rect(0,0,0,0)" v:verticalAlign="0"/>
					<v:textRect cx="12.4661" cy="629.65" width="74.5" height="32.0091"/>
					<text x="-0.73" y="621.75" class="st10" v:langID="1033"><v:paragraph v:horizAlign="1"/><v:tabList/>Queue</text>				</g>
			</g>
			<g id="shape1317-60" v:mID="1317" v:groupContext="shape" transform="translate(132.82,-42.0177)">
				<title>Sheet.1317</title>
				<desc>Function App</desc>
				<v:textBlock v:margins="rect(4,4,4,4)" v:verticalAlign="0"/>
				<v:textRect cx="31.5898" cy="572.75" width="63.18" height="78.5002"/>
				<rect x="0" y="533.5" width="63.1795" height="78.5002" class="st16"/>
				<text x="5" y="545.6" class="st10" v:langID="1033"><v:paragraph v:horizAlign="1"/><v:tabList/>Function App</text>			</g>
			<g id="group1321-63" transform="translate(12.9015,-67.591)" v:mID="1321" v:groupContext="group">
				<title>Sheet.1321</title>
				<g id="shape1322-64" v:mID="1322" v:groupContext="shape" transform="translate(11.7245,25.5733)">
					<title>Sheet.1322</title>
					<desc>App Service plan</desc>
					<v:textBlock v:margins="rect(4,4,4,4)" v:verticalAlign="0"/>
					<v:textRect cx="27.6032" cy="572.75" width="55.21" height="78.5002"/>
					<rect x="0" y="533.5" width="55.2063" height="78.5002" class="st16"/>
					<text x="4.19" y="545.6" class="st10" v:langID="1033"><v:paragraph v:horizAlign="1"/><v:tabList/>App Service <tspan
								x="19.03" dy="1.2em" class="st17">plan</tspan></text>				</g>
				<g id="group1323-68" transform="translate(22.3096,7.19377)" v:mID="1323" v:groupContext="group">
					<title>Web App (opaque)  (was websites)</title>
					<desc>Web App</desc>
					<g id="shape1324-69" v:mID="1324" v:groupContext="shape">
						<title>Sheet.1324</title>
						<path d="M28.23 588.4 C25.34 584.62 20.97 582.65 16.56 582.65 C13.46 582.65 10.31 583.64 7.65 585.67 C1.22
									 590.61 0 599.81 4.93 606.25 C7.81 610.03 12.18 612 16.59 612 C19.7 612 22.84 611.02 25.5 608.98
									 C31.93 604.05 33.15 594.83 28.23 588.4 Z" class="st18"/>
					</g>
					<g id="group1325-71" v:mID="1325" v:groupContext="group">
						<title>Sheet.1325</title>
						<g id="group1326-72" v:mID="1326" v:groupContext="group">
							<title>Sheet.1326</title>
							<g id="shape1327-73" v:mID="1327" v:groupContext="shape">
								<title>Sheet.1327</title>
								<path d="M24.33 607.46 C22.02 609.23 19.29 610.09 16.59 610.09 C12.74 610.09 8.95 608.37 6.44 605.09
											 C2.15 599.49 3.21 591.48 8.82 587.19 C11.13 585.41 13.86 584.56 16.56 584.56 C20.41
											 584.56 24.2 586.29 26.71 589.57 C31 595.16 29.94 603.17 24.33 607.46 ZM28.23 588.4 C25.34
											 584.62 20.97 582.65 16.56 582.65 C13.46 582.65 10.31 583.63 7.65 585.67 C1.22 590.61
											 0 599.81 4.93 606.25 C7.81 610.03 12.18 612 16.59 612 C19.7 612 22.84 611.02 25.5 608.98
											 C31.93 604.05 33.15 594.83 28.23 588.4 Z" class="st19"/>
							</g>
						</g>
						<g id="group1328-75" transform="translate(5.26824,-4.5513)" v:mID="1328" v:groupContext="group">
							<title>Sheet.1328</title>
							<g id="group1329-76" transform="translate(0.363374,-0.182743)" v:mID="1329" v:groupContext="group">
								<title>Sheet.1329</title>
								<g id="group1330-77" transform="translate(0.464839,3.41061E-13)" v:mID="1330"
										v:groupContext="group">
									<title>Sheet.1330</title>
									<g id="shape1331-78" v:mID="1331" v:groupContext="shape">
										<title>Sheet.1331</title>
										<path d="M3.85 604.72 C3 603.88 2.31 603.08 1.77 602.29 C0.54 604.79 0.1 607.37 0 609.42
													 C0.12 609.58 0.12 609.71 0.24 609.88 C0.86 610.66 1.63 611.4 2.37 612 C2.26
													 610.32 2.42 607.57 3.85 604.72 Z" class="st19"/>
									</g>
								</g>
								<g id="shape1332-80" v:mID="1332" v:groupContext="shape" transform="translate(3.49987,-9.29543)">
									<title>Sheet.1332</title>
									<path d="M5.25 604.24 C4.1 605.04 2.91 606.05 1.72 607.32 C1.06 608.02 0.49 608.73 0 609.44 C0.51
												 610.27 1.18 611.12 2.02 612 C2.65 611.11 3.42 610.22 4.36 609.34 C5.54 608.24 6.64
												 607.36 7.68 606.65 C6.83 605.86 6.01 605.06 5.25 604.24 Z" class="st19"/>
								</g>
								<g id="group1333-82" transform="translate(10.5621,-15.7349)" v:mID="1333" v:groupContext="group">
									<title>Sheet.1333</title>
									<g id="shape1334-83" v:mID="1334" v:groupContext="shape">
										<title>Sheet.1334</title>
										<path d="M10.38 609.85 C9.83 609.14 9.21 608.53 8.55 607.96 C6.57 607.66 3.51 607.69 0 609.56
													 C0.81 610.42 1.6 611.24 2.38 612 C7.06 609.48 10.38 609.85 10.38 609.85 Z"
												class="st19"/>
									</g>
								</g>
								<g id="group1335-85" transform="translate(-2.29816E-14,-9.71291)" v:mID="1335"
										v:groupContext="group">
									<title>Sheet.1335</title>
									<g id="shape1336-86" v:mID="1336" v:groupContext="shape">
										<title>Sheet.1336</title>
										<path d="M2.23 612 C2.59 611.29 3.01 610.57 3.5 609.86 C1.49 606.68 1.58 604.06 1.8 602.83
													 C1.3 603.36 0.83 603.9 0.42 604.49 C0.02 606.15 -0 608.8 2.23 612 Z"
												class="st19"/>
									</g>
								</g>
								<g id="group1337-88" transform="translate(4.30713,-0.766472)" v:mID="1337" v:groupContext="group">
									<title>Sheet.1337</title>
									<g id="shape1338-89" v:mID="1338" v:groupContext="shape">
										<title>Sheet.1338</title>
										<path d="M3.63 605.68 C2.69 604.93 1.9 604.19 1.21 603.47 C0.73 604.14 0.33 604.82 0 605.49
													 C0.64 606.14 1.38 606.79 2.22 607.46 C7.45 611.61 12.65 612 15.57 612 C15.76
													 612 16.68 610.76 17.21 609.99 C15.9 610.26 10.32 610.97 3.63 605.68 Z"
												class="st19"/>
									</g>
								</g>
								<g id="group1339-91" transform="translate(2.23611,-7.27983)" v:mID="1339" v:groupContext="group">
									<title>Sheet.1339</title>
									<g id="shape1340-92" v:mID="1340" v:groupContext="shape">
										<title>Sheet.1340</title>
										<path d="M0 609.57 C0.55 610.35 1.22 611.16 2.07 612 C2.4 611.33 2.81 610.66 3.28 609.98
													 C2.44 609.1 1.78 608.25 1.26 607.43 C0.77 608.14 0.35 608.86 0 609.57 Z"
												class="st19"/>
									</g>
								</g>
								<g id="group1341-94" transform="translate(11.1833,-5.51215)" v:mID="1341" v:groupContext="group">
									<title>Sheet.1341</title>
									<g id="shape1342-95" v:mID="1342" v:groupContext="shape">
										<title>Sheet.1342</title>
										<path d="M0 602.86 C4.77 607.27 10.42 611.02 11.86 612 C12.01 611.64 12.1 611.28 12.2 610.91
													 C10.66 609.77 6.61 606.6 1.76 601.78 C1.2 602.08 0.61 602.45 0 602.86 Z"
												class="st19"/>
									</g>
								</g>
								<g id="group1343-97" transform="translate(5.30199,-17.0557)" v:mID="1343" v:groupContext="group">
									<title>Sheet.1343</title>
									<g id="shape1344-98" v:mID="1344" v:groupContext="shape">
										<title>Sheet.1344</title>
										<path d="M5.26 610.87 C4.09 609.65 2.9 608.34 1.69 606.94 C1.11 607.12 0.55 607.36 0 607.63
													 C0.89 609.09 2.1 610.56 3.45 612 C4.06 611.57 4.66 611.19 5.26 610.87 Z"
												class="st19"/>
									</g>
								</g>
								<g id="shape1345-100" v:mID="1345" v:groupContext="shape" transform="translate(8.65112,-14.5488)">
									<title>Sheet.1345</title>
									<path d="M1.99 608.33 C1.39 608.65 0.61 609.13 0 609.56 C0.76 610.37 1.54 611.21 2.39 612 C3
												 611.58 3.81 611.08 4.38 610.77 C3.6 610.02 2.79 609.2 1.99 608.33 Z" class="st19"/>
								</g>
								<g id="shape1346-102" v:mID="1346" v:groupContext="shape" transform="translate(8.65035,-14.5007)">
									<title>Sheet.1346</title>
									<path d="M1.77 608.17 C1.17 608.49 0.61 608.91 0 609.34 C0.76 610.15 1.85 611.21 2.7 612 C3.31
												 611.58 3.81 611.16 4.38 610.85 C3.6 610.1 2.58 609.04 1.77 608.17 Z" class="st19"/>
								</g>
							</g>
							<g id="group1347-104" transform="translate(15.7995,-6.45788)" v:mID="1347" v:groupContext="group">
								<title>Sheet.1347</title>
								<g id="shape1348-105" v:mID="1348" v:groupContext="shape">
									<title>Sheet.1348</title>
									<path d="M1.43 606.73 C0.23 607.65 0 609.37 0.92 610.57 C1.84 611.78 3.57 612 4.77 611.09 C5.97
												 610.17 6.2 608.45 5.28 607.24 C4.36 606.05 2.64 605.81 1.43 606.73 Z" class="st19"/>
								</g>
							</g>
							<g id="group1349-107" transform="translate(10.26,-2.27374E-13)" v:mID="1349" v:groupContext="group">
								<title>Sheet.1349</title>
								<g id="shape1350-108" v:mID="1350" v:groupContext="shape">
									<title>Sheet.1350</title>
									<path d="M1.32 607.12 C0.21 607.97 0 609.58 0.84 610.68 C1.7 611.79 3.29 612 4.41 611.15 C5.52
												 610.3 5.73 608.71 4.88 607.6 C4.03 606.48 2.43 606.27 1.32 607.12 Z" class="st19"/>
								</g>
							</g>
							<g id="group1351-110" transform="translate(0,-5.55464)" v:mID="1351" v:groupContext="group">
								<title>Sheet.1351</title>
								<g id="shape1352-111" v:mID="1352" v:groupContext="shape">
									<title>Sheet.1352</title>
									<path d="M2.01 604.59 C0.32 605.89 0 608.29 1.29 609.98 C2.59 611.68 5.01 612 6.7 610.7 C8.39
												 609.41 8.71 606.99 7.42 605.29 C6.12 603.62 3.7 603.29 2.01 604.59 Z" class="st19"/>
								</g>
							</g>
						</g>
					</g>
					<g id="shape1323-113" v:mID="1323" v:groupContext="groupContent">
						<v:textBlock v:margins="rect(0,0,0,0)" v:verticalAlign="0"/>
						<v:textRect cx="16.5743" cy="622.074" width="74.5" height="8.04824"/>
						<text x="4.16" y="623.45" class="st20" v:langID="1033"><v:paragraph v:horizAlign="1"/><v:tabList/>Web App</text>					</g>
				</g>
			</g>
			<g id="shape1353-115" v:mID="1353" v:groupContext="shape" transform="translate(67.5,-75.0733)">
				<title>Sheet.1353</title>
				<path d="M0 612 C3.24 612 6.27 612 9.25 612 C14.44 612 19.47 612 25.09 612" class="st2"/>
			</g>
		</g>
		<g id="shape1368-120" v:mID="1368" v:groupContext="shape" transform="translate(322.688,-220.5)">
			<title>Sheet.1368</title>
			<desc>Standby region</desc>
			<v:textBlock v:margins="rect(4,4,4,4)" v:verticalAlign="0"/>
			<v:textRect cx="117.656" cy="537.942" width="235.32" height="139.921"/>
			<rect x="0" y="470.25" width="235.312" height="141.75" class="st11"/>
			<text x="86.4" y="480.08" class="st12" v:langID="1033"><v:paragraph v:horizAlign="1"/><v:tabList/>Standby region</text>		</g>
		<g id="shape1371-123" v:mID="1371" v:groupContext="shape" transform="translate(341.402,-243)">
			<title>Sheet.1371</title>
			<rect x="0" y="517.5" width="185.098" height="94.5" class="st13"/>
		</g>
		<g id="group1382-125" transform="translate(422.867,-274.329)" v:mID="1382" v:groupContext="group">
			<title>Storage queue (opaque)</title>
			<desc>Queue</desc>
			<g id="shape1383-126" v:mID="1383" v:groupContext="shape" transform="translate(0,1202.37) scale(1,-1)">
				<title>Sheet.1383</title>
				<path d="M18.73 612 L6.2 612 L0 601.18 L6.27 590.37 L18.73 590.37 L24.93 601.18 L18.73 612 Z" class="st14"/>
			</g>
			<g id="group1384-128" v:mID="1384" v:groupContext="group">
				<title>Sheet.1384</title>
				<g id="shape1385-129" v:mID="1385" v:groupContext="shape" transform="translate(13.9831,1211.67) scale(1,-1)">
					<title>Sheet.1385</title>
					<path d="M5.41 612 L0 612 L2.7 609.89 L5.41 612 Z" class="st15"/>
				</g>
				<g id="shape1386-131" v:mID="1386" v:groupContext="shape" transform="translate(5.73835,1212.46) scale(1,-1)">
					<title>Sheet.1386</title>
					<path d="M2.7 609.89 C2.64 609.89 2.57 609.89 2.51 609.96 L0 611.93 L0 608.7 L5.74 608.7 L5.74 612 L2.97 609.96
								 C2.9 609.89 2.77 609.89 2.7 609.89 Z" class="st15"/>
				</g>
				<g id="shape1387-133" v:mID="1387" v:groupContext="shape" transform="translate(13.8512,1212.46) scale(1,-1)">
					<title>Sheet.1387</title>
					<path d="M2.84 609.89 C2.77 609.89 2.64 609.89 2.57 609.96 L0 611.93 L0 608.7 L5.74 608.7 L5.74 612 L3.03 609.96
								 C2.97 609.89 2.9 609.89 2.84 609.89 Z" class="st15"/>
				</g>
				<g id="shape1388-135" v:mID="1388" v:groupContext="shape" transform="translate(0,1202.37) scale(1,-1)">
					<title>Sheet.1388</title>
					<path d="M18.73 612 L6.2 612 L0 601.18 L6.27 590.37 L18.73 590.37 L24.93 601.18 L18.73 612 ZM20.91 596.57 L3.83
								 596.57 C3.3 596.57 2.9 597.03 2.9 597.56 L2.9 604.09 C2.9 604.61 3.3 605.07 3.83 605.07 L20.91 605.07
								 C21.11 605.07 21.44 605.07 23.68 600.85 L23.74 600.66 L23.68 600.52 C21.44 596.57 21.11 596.57 20.91
								 596.57 Z" class="st15"/>
				</g>
				<g id="shape1389-137" v:mID="1389" v:groupContext="shape" transform="translate(5.67239,1211.67) scale(1,-1)">
					<title>Sheet.1389</title>
					<path d="M5.47 612 L0 612 L2.7 609.89 L5.47 612 Z" class="st15"/>
				</g>
				<g id="shape1390-139" v:mID="1390" v:groupContext="shape" transform="translate(3.56174,1210.02) scale(1,-1)">
					<title>Sheet.1390</title>
					<path d="M0.26 612 C0.13 612 0 611.87 0 611.74 L0 605.21 C0 605.07 0.13 604.88 0.26 604.88 L17.22 604.88 C17.54
								 605.21 18.53 606.79 19.39 608.31 C18.53 609.96 17.48 611.67 17.22 612 L0.26 612 ZM8.57 605.93 C8.57
								 605.73 8.38 605.54 8.11 605.54 L1.65 605.54 C1.45 605.54 1.39 605.73 1.39 605.93 L1.39 610.75 C1.39
								 610.94 1.45 611.01 1.65 611.01 L8.11 611.01 C8.31 611.01 8.57 610.94 8.57 610.75 L8.57 605.93 ZM16.69
								 605.93 C16.69 605.73 16.56 605.54 16.36 605.54 L9.96 605.54 C9.76 605.54 9.63 605.73 9.63 605.93
								 L9.63 610.75 C9.63 610.94 9.76 611.01 9.96 611.01 L16.36 611.01 C16.56 611.01 16.69 610.94 16.69
								 610.75 L16.69 605.93 Z" class="st15"/>
				</g>
			</g>
			<g id="shape1382-141" v:mID="1382" v:groupContext="groupContent">
				<v:textBlock v:margins="rect(0,0,0,0)" v:verticalAlign="0"/>
				<v:textRect cx="12.4661" cy="629.65" width="74.5" height="32.0091"/>
				<text x="-0.73" y="621.75" class="st10" v:langID="1033"><v:paragraph v:horizAlign="1"/><v:tabList/>Queue</text>			</g>
		</g>
		<g id="group1409-143" transform="translate(455.885,-252.091)" v:mID="1409" v:groupContext="group">
			<title>Sheet.1409</title>
			<g id="shape1410-144" v:mID="1410" v:groupContext="shape" transform="translate(0.614701,-6.38354E-06)">
				<title>Sheet.1410</title>
				<desc>Function App</desc>
				<v:textBlock v:margins="rect(4,4,4,4)" v:verticalAlign="0"/>
				<v:textRect cx="31.5898" cy="572.75" width="63.18" height="78.5002"/>
				<rect x="0" y="533.5" width="63.1795" height="78.5002" class="st16"/>
				<text x="5" y="545.6" class="st10" v:langID="1033"><v:paragraph v:horizAlign="1"/><v:tabList/>Function App</text>			</g>
		</g>
		<g id="group1413-147" transform="translate(335.59,-263.341)" v:mID="1413" v:groupContext="group">
			<title>Sheet.1413</title>
			<g id="shape1414-148" v:mID="1414" v:groupContext="shape" transform="translate(12.9017,11.25)">
				<title>Sheet.1414</title>
				<desc>App Service plan</desc>
				<v:textBlock v:margins="rect(4,4,4,4)" v:verticalAlign="0"/>
				<v:textRect cx="27.6032" cy="572.75" width="55.21" height="78.5002"/>
				<rect x="0" y="533.5" width="55.2063" height="78.5002" class="st16"/>
				<text x="4.19" y="545.6" class="st10" v:langID="1033"><v:paragraph v:horizAlign="1"/><v:tabList/>App Service <tspan
							x="19.03" dy="1.2em" class="st17">plan</tspan></text>			</g>
			<g id="group1415-152" transform="translate(23.3002,-7.12953)" v:mID="1415" v:groupContext="group">
				<title>Web App (opaque)  (was websites)</title>
				<desc>Web App</desc>
				<g id="shape1416-153" v:mID="1416" v:groupContext="shape">
					<title>Sheet.1416</title>
					<path d="M28.23 588.4 C25.34 584.62 20.97 582.65 16.56 582.65 C13.46 582.65 10.31 583.64 7.65 585.67 C1.22 590.61
								 -0 599.81 4.93 606.25 C7.81 610.03 12.18 612 16.59 612 C19.7 612 22.84 611.02 25.5 608.98 C31.93
								 604.05 33.15 594.83 28.23 588.4 Z" class="st18"/>
				</g>
				<g id="group1417-155" v:mID="1417" v:groupContext="group">
					<title>Sheet.1417</title>
					<g id="group1418-156" v:mID="1418" v:groupContext="group">
						<title>Sheet.1418</title>
						<g id="shape1419-157" v:mID="1419" v:groupContext="shape">
							<title>Sheet.1419</title>
							<path d="M24.33 607.46 C22.02 609.23 19.29 610.09 16.59 610.09 C12.74 610.09 8.95 608.37 6.44 605.09
										 C2.15 599.49 3.21 591.48 8.82 587.19 C11.13 585.41 13.86 584.56 16.56 584.56 C20.41 584.56
										 24.2 586.29 26.71 589.57 C31 595.16 29.94 603.17 24.33 607.46 ZM28.23 588.4 C25.34 584.62
										 20.97 582.65 16.56 582.65 C13.46 582.65 10.31 583.63 7.65 585.67 C1.22 590.61 0 599.81 4.93
										 606.25 C7.81 610.03 12.18 612 16.59 612 C19.7 612 22.84 611.02 25.5 608.98 C31.93 604.05
										 33.15 594.83 28.23 588.4 Z" class="st19"/>
						</g>
					</g>
					<g id="group1420-159" transform="translate(5.26824,-4.5513)" v:mID="1420" v:groupContext="group">
						<title>Sheet.1420</title>
						<g id="group1421-160" transform="translate(0.363374,-0.182743)" v:mID="1421" v:groupContext="group">
							<title>Sheet.1421</title>
							<g id="group1422-161" transform="translate(0.464839,3.41061E-13)" v:mID="1422" v:groupContext="group">
								<title>Sheet.1422</title>
								<g id="shape1423-162" v:mID="1423" v:groupContext="shape">
									<title>Sheet.1423</title>
									<path d="M3.85 604.72 C3 603.88 2.31 603.08 1.77 602.29 C0.54 604.79 0.1 607.37 0 609.42 C0.12
												 609.58 0.12 609.71 0.24 609.88 C0.86 610.66 1.63 611.4 2.37 612 C2.26 610.32 2.42
												 607.57 3.85 604.72 Z" class="st19"/>
								</g>
							</g>
							<g id="shape1424-164" v:mID="1424" v:groupContext="shape" transform="translate(3.49987,-9.29543)">
								<title>Sheet.1424</title>
								<path d="M5.25 604.24 C4.1 605.04 2.91 606.05 1.72 607.32 C1.06 608.02 0.49 608.73 0 609.44 C0.51
											 610.27 1.18 611.12 2.02 612 C2.65 611.11 3.42 610.22 4.36 609.34 C5.54 608.24 6.64 607.36
											 7.68 606.65 C6.83 605.86 6.01 605.06 5.25 604.24 Z" class="st19"/>
							</g>
							<g id="group1425-166" transform="translate(10.5621,-15.7349)" v:mID="1425" v:groupContext="group">
								<title>Sheet.1425</title>
								<g id="shape1426-167" v:mID="1426" v:groupContext="shape">
									<title>Sheet.1426</title>
									<path d="M10.38 609.85 C9.83 609.14 9.21 608.53 8.55 607.96 C6.57 607.66 3.51 607.69 0 609.56
												 C0.81 610.42 1.6 611.24 2.38 612 C7.06 609.48 10.38 609.85 10.38 609.85 Z"
											class="st19"/>
								</g>
							</g>
							<g id="group1427-169" transform="translate(-2.3731E-14,-9.71291)" v:mID="1427" v:groupContext="group">
								<title>Sheet.1427</title>
								<g id="shape1428-170" v:mID="1428" v:groupContext="shape">
									<title>Sheet.1428</title>
									<path d="M2.23 612 C2.59 611.29 3.01 610.57 3.5 609.86 C1.49 606.68 1.58 604.06 1.8 602.83 C1.3
												 603.36 0.83 603.9 0.42 604.49 C0.02 606.15 0 608.8 2.23 612 Z" class="st19"/>
								</g>
							</g>
							<g id="group1429-172" transform="translate(4.30713,-0.766472)" v:mID="1429" v:groupContext="group">
								<title>Sheet.1429</title>
								<g id="shape1430-173" v:mID="1430" v:groupContext="shape">
									<title>Sheet.1430</title>
									<path d="M3.63 605.68 C2.69 604.93 1.9 604.19 1.21 603.47 C0.73 604.14 0.33 604.82 0 605.49 C0.64
												 606.14 1.38 606.79 2.22 607.46 C7.45 611.61 12.65 612 15.57 612 C15.76 612 16.68
												 610.76 17.21 609.99 C15.9 610.26 10.32 610.97 3.63 605.68 Z" class="st19"/>
								</g>
							</g>
							<g id="group1431-175" transform="translate(2.23611,-7.27983)" v:mID="1431" v:groupContext="group">
								<title>Sheet.1431</title>
								<g id="shape1432-176" v:mID="1432" v:groupContext="shape">
									<title>Sheet.1432</title>
									<path d="M0 609.57 C0.55 610.35 1.22 611.16 2.07 612 C2.4 611.33 2.81 610.66 3.28 609.98 C2.44
												 609.1 1.78 608.25 1.26 607.43 C0.77 608.14 0.35 608.86 0 609.57 Z" class="st19"/>
								</g>
							</g>
							<g id="group1433-178" transform="translate(11.1833,-5.51215)" v:mID="1433" v:groupContext="group">
								<title>Sheet.1433</title>
								<g id="shape1434-179" v:mID="1434" v:groupContext="shape">
									<title>Sheet.1434</title>
									<path d="M0 602.86 C4.77 607.27 10.42 611.02 11.86 612 C12.01 611.64 12.1 611.28 12.2 610.91
												 C10.66 609.77 6.61 606.6 1.76 601.78 C1.2 602.08 0.61 602.45 0 602.86 Z"
											class="st19"/>
								</g>
							</g>
							<g id="group1435-181" transform="translate(5.30199,-17.0557)" v:mID="1435" v:groupContext="group">
								<title>Sheet.1435</title>
								<g id="shape1436-182" v:mID="1436" v:groupContext="shape">
									<title>Sheet.1436</title>
									<path d="M5.26 610.87 C4.09 609.65 2.9 608.34 1.69 606.94 C1.11 607.12 0.55 607.36 0 607.63 C0.89
												 609.09 2.1 610.56 3.45 612 C4.06 611.57 4.66 611.19 5.26 610.87 Z" class="st19"/>
								</g>
							</g>
							<g id="shape1437-184" v:mID="1437" v:groupContext="shape" transform="translate(8.65112,-14.5488)">
								<title>Sheet.1437</title>
								<path d="M1.99 608.33 C1.39 608.65 0.61 609.13 0 609.56 C0.76 610.37 1.54 611.21 2.39 612 C3 611.58
											 3.81 611.08 4.38 610.77 C3.6 610.02 2.79 609.2 1.99 608.33 Z" class="st19"/>
							</g>
							<g id="shape1438-186" v:mID="1438" v:groupContext="shape" transform="translate(8.65035,-14.5007)">
								<title>Sheet.1438</title>
								<path d="M1.77 608.17 C1.17 608.49 0.61 608.91 0 609.34 C0.76 610.15 1.85 611.21 2.7 612 C3.31 611.58
											 3.81 611.16 4.38 610.85 C3.6 610.1 2.58 609.04 1.77 608.17 Z" class="st19"/>
							</g>
						</g>
						<g id="group1439-188" transform="translate(15.7995,-6.45788)" v:mID="1439" v:groupContext="group">
							<title>Sheet.1439</title>
							<g id="shape1440-189" v:mID="1440" v:groupContext="shape">
								<title>Sheet.1440</title>
								<path d="M1.43 606.73 C0.23 607.65 0 609.37 0.92 610.57 C1.84 611.78 3.57 612 4.77 611.09 C5.97 610.17
											 6.2 608.45 5.28 607.24 C4.36 606.05 2.64 605.81 1.43 606.73 Z" class="st19"/>
							</g>
						</g>
						<g id="group1441-191" transform="translate(10.26,-2.27374E-13)" v:mID="1441" v:groupContext="group">
							<title>Sheet.1441</title>
							<g id="shape1442-192" v:mID="1442" v:groupContext="shape">
								<title>Sheet.1442</title>
								<path d="M1.32 607.12 C0.21 607.97 0 609.58 0.84 610.68 C1.7 611.79 3.29 612 4.41 611.15 C5.52 610.3
											 5.73 608.71 4.88 607.6 C4.03 606.48 2.43 606.27 1.32 607.12 Z" class="st19"/>
							</g>
						</g>
						<g id="group1443-194" transform="translate(0,-5.55464)" v:mID="1443" v:groupContext="group">
							<title>Sheet.1443</title>
							<g id="shape1444-195" v:mID="1444" v:groupContext="shape">
								<title>Sheet.1444</title>
								<path d="M2.01 604.59 C0.32 605.89 0 608.29 1.29 609.98 C2.59 611.68 5.01 612 6.7 610.7 C8.39 609.41
											 8.71 606.99 7.42 605.29 C6.12 603.62 3.7 603.29 2.01 604.59 Z" class="st19"/>
							</g>
						</g>
					</g>
				</g>
				<g id="shape1415-197" v:mID="1415" v:groupContext="groupContent">
					<v:textBlock v:margins="rect(0,0,0,0)" v:verticalAlign="0"/>
					<v:textRect cx="16.5743" cy="622.074" width="74.5" height="8.04824"/>
					<text x="4.16" y="623.45" class="st20" v:langID="1033"><v:paragraph v:horizAlign="1"/><v:tabList/>Web App</text>				</g>
			</g>
		</g>
		<g id="shape1445-199" v:mID="1445" v:groupContext="shape" transform="translate(391.179,-285.147)">
			<title>Sheet.1445</title>
			<path d="M0 612 C3.24 612 6.27 612 9.25 612 C14.44 612 19.47 612 25.09 612" class="st2"/>
		</g>
		<g id="shape8-204" v:mID="8" v:groupContext="shape" transform="translate(304.943,-463.5)">
			<title>Sheet.8</title>
			<path d="M0 612 C3.81 612 7.37 612 10.87 612 C18.76 612 26.33 612 35.47 612" class="st1"/>
		</g>
		<g id="shape9-207" v:mID="9" v:groupContext="shape" transform="translate(305.4,-294.51)">
			<title>Sheet.9</title>
			<path d="M0 612 C3.87 612 7.48 612 11.04 612 C19.04 612 26.73 612 36 612" class="st1"/>
		</g>
		<g id="shape1447-210" v:mID="1447" v:groupContext="shape" transform="translate(471.228,-433.427)">
			<title>Azure Functions (nc).1447</title>
			<path d="M23.6 582.75 L13.94 582.75 L8.73 597.42 L15.08 597.47 L10.12 612 L23.8 592.62 L17.16 592.62 L23.6 582.75 ZM0.2
						 597.57 L1.74 599.31 L1.79 599.36 L8.73 606 C8.98 606.25 9.53 606.3 9.82 606 C10.12 605.7 10.12 605.16 9.82
						 604.86 L2.63 597.57 C2.34 597.28 2.34 596.73 2.63 596.43 L9.67 589.39 C10.07 589.1 9.97 588.55 9.67 588.25
						 C9.33 587.96 8.88 587.96 8.58 588.25 L1.74 594.9 L0.2 596.43 C-0.04 596.73 -0.09 597.28 0.2 597.57 ZM31.54
						 597.57 C31.83 597.28 31.79 596.73 31.54 596.43 L30 594.9 L23.16 588.25 C22.86 587.96 22.42 587.96 22.07
						 588.25 C21.77 588.55 21.67 589.1 22.07 589.39 L29.26 596.43 C29.55 596.73 29.55 597.28 29.26 597.57 L21.92
						 604.86 C21.62 605.16 21.62 605.7 21.92 606 C22.22 606.3 22.76 606.25 23.01 606 L29.8 599.26 L29.85 599.21
						 L31.54 597.57 Z" class="st19"/>
		</g>
		<g id="shape1448-212" v:mID="1448" v:groupContext="shape" transform="translate(440.743,-447.853)">
			<title>Sheet.1448</title>
			<path d="M0 612 C3.24 612 6.27 612 9.25 612 C14.44 612 19.47 612 25.09 612" class="st2"/>
		</g>
		<g id="shape1449-217" v:mID="1449" v:groupContext="shape" transform="translate(472.218,-269.726)">
			<title>Azure Functions (nc).1449</title>
			<path d="M23.6 582.75 L13.94 582.75 L8.73 597.42 L15.08 597.47 L10.12 612 L23.8 592.62 L17.16 592.62 L23.6 582.75 ZM0.2
						 597.57 L1.74 599.31 L1.79 599.36 L8.73 606 C8.98 606.25 9.53 606.3 9.82 606 C10.12 605.7 10.12 605.16 9.82
						 604.86 L2.63 597.57 C2.34 597.28 2.34 596.73 2.63 596.43 L9.67 589.39 C10.07 589.1 9.97 588.55 9.67 588.25
						 C9.33 587.96 8.88 587.96 8.58 588.25 L1.74 594.9 L0.2 596.43 C-0.04 596.73 -0.09 597.28 0.2 597.57 ZM31.54
						 597.57 C31.83 597.28 31.79 596.73 31.54 596.43 L30 594.9 L23.16 588.25 C22.86 587.96 22.42 587.96 22.07
						 588.25 C21.77 588.55 21.67 589.1 22.07 589.39 L29.26 596.43 C29.55 596.73 29.55 597.28 29.26 597.57 L21.92
						 604.86 C21.62 605.16 21.62 605.7 21.92 606 C22.22 606.3 22.76 606.25 23.01 606 L29.8 599.26 L29.85 599.21
						 L31.54 597.57 Z" class="st19"/>
		</g>
		<g id="shape1450-219" v:mID="1450" v:groupContext="shape" transform="translate(447.788,-284.152)">
			<title>Sheet.1450</title>
			<path d="M0 612 C2.43 612 4.7 612 6.93 612 C10.42 612 13.81 612 17.51 612" class="st2"/>
		</g>
		<g id="group1452-224" transform="translate(239.523,-351.37)" v:mID="1452" v:groupContext="group">
			<title>Sheet.1452</title>
			<desc>Azure Front Door</desc>
			<g id="shape1453-225" v:mID="1453" v:groupContext="shape" transform="translate(0,-6.084)">
				<title>Sheet.1453</title>
				<path d="M33.78 599.32 C34.15 598.39 34.36 597.37 34.36 596.29 C34.36 591.75 30.68 588.07 26.15 588.07 C24.88 588.07
							 23.69 588.36 22.62 588.87 C20.85 586.57 18.07 585.08 14.94 585.08 C9.58 585.08 5.23 589.43 5.23 594.8
							 C5.23 595.23 5.27 595.66 5.32 596.08 C2.21 597.25 0 600.25 0 603.77 C0 608.32 3.68 612 8.22 612 L30.63
							 612 C34.34 612 37.35 608.99 37.35 605.27 C37.35 602.69 35.9 600.46 33.78 599.32 Z" class="st19"/>
			</g>
			<g id="shape1454-227" v:mID="1454" v:groupContext="shape" transform="translate(13.425,-6.0465)">
				<title>Sheet.1454</title>
				<rect x="0" y="596.962" width="10.5" height="15.0375" class="st21"/>
			</g>
			<g id="shape1455-229" v:mID="1455" v:groupContext="shape" transform="translate(17.175,-6.084)">
				<title>Sheet.1455</title>
				<path d="M8.95 596.14 L1.7 591.87 C1.7 591.87 1.39 591.71 1.25 591.71 C0.56 591.71 0 591.75 0 593.05 L0 597 L7.5
							 597 L7.5 612 L9.75 612 L9.75 597.32 C9.75 596.79 9.43 596.32 8.95 596.14 Z" class="st22"/>
			</g>
			<g id="shape1456-231" v:mID="1456" v:groupContext="shape" transform="translate(17.925,0)">
				<title>Sheet.1456</title>
				<path d="M7.91 589.99 L0.66 585.73 C0.33 585.62 0 585.87 0 586.22 L0 611.4 C0 611.75 0.33 612 0.66 611.89 L7.91 607.63
							 C8.11 607.56 8.25 607.36 8.25 607.13 L8.25 590.48 C8.25 590.26 8.11 590.06 7.91 589.99 Z" class="st19"/>
			</g>
			<g id="shape1452-233" v:mID="1452" v:groupContext="groupContent">
				<v:textBlock v:margins="rect(0,0,0,0)"/>
				<v:textRect cx="18" cy="623.991" width="69.87" height="33.009"/>
				<text x="-16.33" y="626.69" class="st10" v:langID="1033"><v:paragraph v:horizAlign="1"/><v:tabList/>Azure Front Door</text>			</g>
		</g>
		<g id="group1457-235" transform="translate(597.579,-366.484)" v:mID="1457" v:groupContext="group" v:layerMember="3">
			<title>Mobile App (Opaque) (Was Mobile Services)</title>
			<g id="shape1458-236" v:mID="1458" v:groupContext="shape" v:layerMember="3">
				<title>Sheet.1458</title>
				<path d="M18.35 577.98 L18.05 577.98 L1.68 577.98 L1.5 577.98 C0.02 578.04 0 578.39 0 580.23 L0 609.78 C0 611.61
							 0.03 611.94 1.49 611.99 C1.49 611.99 1.93 612 2.01 612 L17.84 612 C17.92 612 18.35 611.99 18.35 611.99
							 C19.82 611.95 19.84 611.61 19.84 609.78 L19.84 580.23 C19.84 578.39 19.82 578.04 18.35 577.98 Z"
						class="st23"/>
			</g>
			<g id="group1459-238" v:mID="1459" v:groupContext="group" v:layerMember="3">
				<title>Sheet.1459</title>
				<g id="shape1460-239" v:mID="1460" v:groupContext="shape" v:layerMember="3">
					<title>Sheet.1460</title>
					<path d="M18.35 577.98 L17.79 577.98 L1.79 577.98 L1.5 577.98 C0.02 578.04 0 578.39 0 580.23 L0 609.78 C0 611.61
								 0.03 611.94 1.49 611.99 C1.49 611.99 1.93 612 2.01 612 L17.84 612 C17.92 612 18.35 611.99 18.35
								 611.99 C19.82 611.95 19.84 611.61 19.84 609.78 L19.84 580.23 C19.84 578.39 19.82 578.04 18.35 577.98
								 ZM7.59 579.14 L12.26 579.14 C12.34 579.14 12.41 579.24 12.41 579.33 C12.41 579.41 12.34 579.51 12.26
								 579.51 L7.59 579.51 C7.5 579.51 7.43 579.42 7.43 579.33 C7.43 579.24 7.5 579.14 7.59 579.14 ZM7.71
								 610.24 L6.57 610.24 C6.38 610.24 6.23 610.16 6.23 609.97 C6.23 609.77 6.38 609.7 6.57 609.7 L7.71
								 609.7 C7.9 609.7 8.05 609.77 8.05 609.97 C8.05 610.16 7.9 610.24 7.71 610.24 ZM10.7 610.43 L9.15
								 610.43 C8.89 610.43 8.68 610.33 8.68 610.07 C8.68 609.8 8.89 609.7 9.15 609.7 L10.7 609.7 C10.96
								 609.7 11.17 609.8 11.17 610.07 C11.17 610.33 10.96 610.43 10.7 610.43 ZM13.29 610.23 L12.15 610.23
								 C11.97 610.23 11.81 610.16 11.81 609.97 C11.81 609.77 11.97 609.7 12.15 609.7 L13.29 609.7 C13.48
								 609.7 13.63 609.77 13.63 609.97 C13.63 610.16 13.48 610.23 13.29 610.23 ZM18.41 606.79 C18.41 608.35
								 18.27 608.68 16.85 608.71 L9.18 608.71 L2.99 608.71 C1.58 608.68 1.43 608.35 1.43 606.79 L1.43 582.21
								 C1.43 580.58 1.59 580.57 3.17 580.57 L9.18 580.57 L16.67 580.57 C18.26 580.57 18.42 580.58 18.42
								 582.21 L18.41 606.79 Z" class="st24"/>
				</g>
				<g id="shape1461-241" v:mID="1461" v:groupContext="shape" v:layerMember="3" transform="translate(2.39431,-4.40455)">
					<title>Sheet.1461</title>
					<path d="M15.05 587.61 C15.05 586.04 14.86 586.03 13.32 586.03 L1.69 586.03 C0.15 586.03 0 586.04 0 587.61 L0
								 610.14 C0 611.72 0.16 612 1.69 612 L13.33 612 C14.86 612 15.05 611.71 15.05 610.14 L15.05 587.61
								 ZM7.08 604.25 L2.31 601.43 L2.31 595.77 L7.08 598.59 L7.08 604.25 ZM2.77 594.99 L7.53 592.17 L12.31
								 595 L7.56 597.82 L2.77 594.99 ZM12.74 601.43 L7.97 604.25 L7.97 598.63 L12.74 595.8 L12.74 601.43
								 Z" class="st24"/>
				</g>
			</g>
		</g>
		<g id="shape1463-243" v:mID="1463" v:groupContext="shape" v:layerMember="1" transform="translate(607.5,-365.267)">
			<title>Dynamic connector</title>
			<path d="M0 612 L0 685.93 L-87.82 685.93" class="st25"/>
		</g>
		<g id="shape1465-246" v:mID="1465" v:groupContext="shape" v:layerMember="1" transform="translate(607.5,-401.864)">
			<title>Dynamic connector.1465</title>
			<path d="M0 612 L0 559.1 L-88.81 559.1" class="st25"/>
		</g>
		<g id="shape1466-249" v:mID="1466" v:groupContext="shape" transform="translate(607.5,-374.492)">
			<title>Sheet.1466</title>
			<desc>Mobile App</desc>
			<v:textBlock v:margins="rect(4,4,4,4)"/>
			<v:textRect cx="40.5" cy="603" width="81" height="18"/>
			<rect x="0" y="594" width="81" height="18" class="st26"/>
			<text x="16.9" y="606" class="st27" v:langID="1033"><v:paragraph v:horizAlign="1"/><v:tabList/>Mobile App</text>		</g>
		<g id="group1467-252" transform="translate(-489.747,275.4) rotate(-90)" v:mID="1467" v:groupContext="group"
				v:layerMember="4">
			<v:custProps>
				<v:cp v:nameU="ShapeClass" v:lbl="Shape class" v:invis="true" v:langID="1033" v:val="VT4(Sitework)"/>
				<v:cp v:nameU="ShapeType" v:lbl="Shape type" v:invis="true" v:langID="1033" v:val="VT4(Vehicles)"/>
				<v:cp v:nameU="SubShapeType" v:lbl="Subshape type" v:invis="true" v:langID="1033" v:val="VT4()"/>
			</v:custProps>
			<v:userDefs>
				<v:ud v:nameU="AntiScale" v:val="VT0(100):26"/>
				<v:ud v:nameU="HasText" v:val="VT0(0):5"/>
				<v:ud v:nameU="visVersion" v:val="VT0(16):26"/>
				<v:ud v:nameU="SolSH" v:val="VT4({5D50005D-537C-4738-9C46-130C74335A6D})"/>
				<v:ud v:nameU="ShapeClass" v:prompt="Sitework" v:val="VT0(7):26"/>
				<v:ud v:nameU="ShapeType" v:prompt="Vehicles" v:val="VT0(43):26"/>
				<v:ud v:nameU="SubShapeType" v:prompt="" v:val="VT0(0):26"/>
				<v:ud v:nameU="AntiScale" v:prompt="" v:val="VT0(1):26"/>
			</v:userDefs>
			<title>Motor cycle</title>
			<g id="shape1468-253" v:mID="1468" v:groupContext="shape" v:layerMember="4" transform="translate(0.914503,-6.74463)">
				<title>Sheet.1468</title>
				<path d="M0 612 L1.05 612 L0.97 605.95 L0 606.02 L0 612 Z" class="st28"/>
			</g>
			<g id="shape1469-255" v:mID="1469" v:groupContext="shape" v:layerMember="4" transform="translate(2.91492,-3.545)">
				<title>Sheet.1469</title>
				<path d="M21.73 600.09 L21.73 600.22 L21.85 600.22 L21.85 601.16 L21.73 601.16 L21.73 601.4 L19.44 601.4 L19.44 601.85
							 L18.19 601.85 L18.19 601.41 L18.45 601.41 L18.41 601.02 L18.52 601.02 L18.73 599.33 L19.09 599.28 L19.09
							 601 L19.42 601.31 L21.58 601.31 L21.58 601.16 L21.48 601.16 L21.48 600.22 L21.58 600.22 L21.58 600.09
							 L21.73 600.09 ZM23.61 609.4 L24.68 609.51 L26.8 609.94 L26.35 611.49 L25.76 611.55 C25.28 611.55 25.17
							 611.16 25.17 611.16 L25.2 610.88 C25.2 610.88 24.1 610.47 24.08 610.29 C24.08 610.22 23.61 609.4 23.61
							 609.4 ZM25.76 599.51 L26.35 599.56 L26.8 601.11 L24.68 601.55 L23.61 601.66 C23.61 601.66 24.08 600.83
							 24.08 600.76 C24.1 600.58 25.2 600.17 25.2 600.17 L25.17 599.89 C25.17 599.89 25.28 599.51 25.76 599.51
							 ZM19.44 609.43 L19.44 609.45 L20.7 610.28 L20.63 610.42 L19.44 609.65 L19.44 609.95 L19.09 610.28 L19.09
							 612 L18.73 611.96 L18.52 610.27 L18.41 610.27 L18.45 609.88 L18.19 609.88 L18.19 609.43 L19.12 609.43
							 L18.9 609.29 L19.24 609.32 L19.42 609.43 L19.44 609.43 ZM0.24 608.43 L0.24 609.51 L0.48 609.88 L0 610.44
							 L0 608.43 L0.24 608.43 ZM0 601.82 L0 600.76 L0.48 601.31 L0.24 601.69 L0.24 602.76 L0 602.76 L0 601.82
							 ZM50.59 604.07 C50.59 604.07 51.79 604.16 51.79 605.65 C51.79 606.12 51.67 607.06 50.5 607.06 L48.48
							 607.06 L48.48 604.07 L50.59 604.07 Z" class="st29"/>
			</g>
			<g id="shape1470-257" v:mID="1470" v:groupContext="shape" v:layerMember="4" transform="translate(50.5938,-8.13754)">
				<title>Sheet.1470</title>
				<path d="M0 608.31 L0 612 C0.15 611.96 1.61 611.26 1.61 610.17 C1.61 609.07 0 608.31 0 608.31 Z" class="st30"/>
			</g>
			<g id="shape1471-259" v:mID="1471" v:groupContext="shape" v:layerMember="4" transform="translate(2.43838,-5.10981)">
				<title>Sheet.1471</title>
				<path d="M0.48 612 L0 611.45 L0.48 610.97 L0.48 612 ZM0 602.88 L0.48 602.33 L0.48 603.36 L0 602.88 Z" class="st31"/>
			</g>
			<g id="shape1472-261" v:mID="1472" v:groupContext="shape" v:layerMember="4" transform="translate(23.2898,-4.41867)">
				<title>Sheet.1472</title>
				<path d="M0 611.85 L0.38 612 L0.38 611.11 L0.04 611.11 L0 611.85 Z" class="st32"/>
			</g>
			<g id="shape1473-263" v:mID="1473" v:groupContext="shape" v:layerMember="4" transform="translate(29.0027,-2.58528)">
				<title>Sheet.1473</title>
				<path d="M20.75 601.47 C21.2 602.21 22.18 603.93 22.18 604.56 C22.18 605.19 21.36 606.51 21.01 607.05 C20.38 608.03
							 19.35 609.77 18.06 610.49 C16.77 611.21 14.64 611.88 14.64 611.88 C13.86 612.15 13.49 611.88 13.49 611.88
							 L12.34 611.24 C11.33 611.71 8.11 611.38 7.69 611.24 C7.27 611.1 5.98 611.02 5.98 611.02 C4.24 611.16
							 1.21 610.85 1.21 610.85 C-0.08 610.68 0 609.58 0 609.58 L0 599.55 C0 599.55 -0.08 598.44 1.21 598.27
							 C1.21 598.27 4.24 597.97 5.98 598.1 C5.98 598.1 7.27 598.02 7.69 597.88 C8.11 597.74 11.33 597.41 12.34
							 597.88 L13.49 597.25 C13.49 597.25 13.86 596.97 14.64 597.25 C14.64 597.25 16.77 597.91 18.06 598.63
							 C19.35 599.35 20.25 600.66 20.75 601.47 Z" class="st33"/>
			</g>
			<g id="shape1474-265" v:mID="1474" v:groupContext="shape" v:layerMember="4" transform="translate(0,-3.62386)">
				<title>Sheet.1474</title>
				<path d="M12.85 599.2 L16.44 601.2 L16.44 610 L12.85 612 C12.85 612 1.57 609.72 0 605.6 C1.57 601.48 12.85 599.2
							 12.85 599.2 Z" class="st34"/>
			</g>
			<g id="shape1475-267" v:mID="1475" v:groupContext="shape" v:layerMember="4" transform="translate(0.000897452,-3.49006)">
				<title>Sheet.1475</title>
				<path d="M12.84 612 C12.84 612 1.57 609.72 0 605.6 C0.02 605.56 0.04 605.51 0.06 605.47 L16.43 605.47 L16.43 610
							 L12.84 612 Z" class="st35"/>
			</g>
			<g id="shape1476-269" v:mID="1476" v:groupContext="shape" v:layerMember="4" transform="translate(0,-3.62386)">
				<title>Sheet.1476</title>
				<path d="M12.85 599.2 L16.44 601.2 L16.44 610 L12.85 612 C12.85 612 1.57 609.72 0 605.6 C1.57 601.48 12.85 599.2
							 12.85 599.2 Z" class="st36"/>
			</g>
			<g id="shape1477-271" v:mID="1477" v:groupContext="shape" v:layerMember="4" transform="translate(14.5703,-4.17077)">
				<title>Sheet.1477</title>
				<path d="M32.39 602.17 L34.02 606.15 L32.39 610.13 C28.8 612.14 24.82 610.13 24.82 610.13 C23.92 608.65 22.54 610.13
							 22.54 610.13 L21.34 611.06 C19.1 612.33 16.29 611.94 16.29 611.94 L16.29 600.36 C16.29 600.36 19.1 599.98
							 21.34 601.25 L22.54 602.17 C22.54 602.17 23.92 603.65 24.82 602.17 C24.82 602.17 28.8 600.16 32.39 602.17
							 ZM1.93 601.66 C2.41 601.48 3.05 601.66 5.4 602.18 C7.51 602.66 12.75 601.9 12.75 601.9 L12.63 610.45
							 C10.59 609.62 4.5 610.42 3.34 610.66 C2.19 610.89 1.38 610.42 0.66 609.72 C-0.06 609.02 0.01 608.28
							 0.01 608.28 C0.01 608.28 -0.07 604.24 0.22 603.58 C0.51 602.92 1.33 601.89 1.93 601.66 Z" class="st37"/>
			</g>
			<g id="shape1478-273" v:mID="1478" v:groupContext="shape" v:layerMember="4" transform="translate(14.93,-5.45374)">
				<title>Sheet.1478</title>
				<path d="M12.1 611.08 C9.27 608.03 7.06 609.63 7.06 609.63 C4.22 611.56 0.67 610.71 0 610.57 C0.37 611.1 0.88 611.62
							 1.29 611.77 C1.77 611.95 2.29 612.22 4.64 611.69 C6.75 611.22 12.11 611.53 12.11 611.53 L12.1 611.08
							 ZM12.38 603.64 C9.55 606.69 7.34 605.36 7.34 605.36 C4.5 603.42 0.95 604.01 0.28 604.15 C0.65 603.62
							 1.16 603.1 1.57 602.95 C2.05 602.77 2.69 602.94 5.04 603.47 C7.15 603.94 12.39 603.19 12.39 603.19 L12.38
							 603.64 Z" class="st38"/>
			</g>
			<g id="shape1479-275" v:mID="1479" v:groupContext="shape" v:layerMember="4" transform="translate(21.3665,-6.46463)">
				<title>Sheet.1479</title>
				<path d="M5.4 604.68 L1.47 605.57 L0.63 605.12 L3.12 605.04 L3.21 604.79 L5.4 604.68 ZM4.79 611.86 L0.78 611.43 L0
							 611.97 L2.48 611.77 L2.6 612 L4.79 611.86 Z" class="st29"/>
			</g>
			<g id="shape1480-277" v:mID="1480" v:groupContext="shape" v:layerMember="4" transform="translate(36.7381,-8.36879)">
				<title>Sheet.1480</title>
				<path d="M0 608.77 L0.67 608.8 C1.07 608.86 1.14 609.29 0.82 609.51 C0.47 609.76 0.52 610.19 0.52 610.19 L0.52 610.67
							 C0.5 610.95 0.58 611.04 0.71 611.21 C0.84 611.38 1.05 611.41 1.05 611.65 C1.05 612.01 0.73 612 0.73
							 612 L0 612 L0 608.77 Z" class="st33"/>
			</g>
			<g id="shape1481-279" v:mID="1481" v:groupContext="shape" v:layerMember="4" transform="translate(29.2551,-3.09962)">
				<title>Sheet.1481</title>
				<path d="M7.49 611.76 C7.88 611.89 10.73 612.19 11.92 611.84 L11.87 611.63 C9.18 612.14 8.73 610.74 8.73 610.74 C6.64
							 611.35 1.69 610.96 0 610.8 C0.16 611.05 0.46 611.3 1.01 611.37 C1.01 611.37 4.04 611.67 5.78 611.54
							 C5.78 611.54 7.06 611.62 7.49 611.76 ZM7.49 598.47 C7.88 598.34 10.73 598.04 11.92 598.38 L11.87 598.6
							 C9.18 598.08 8.73 599.48 8.73 599.48 C6.64 598.87 1.69 599.27 0 599.42 C0.16 599.17 0.46 598.92 1.01
							 598.85 C1.01 598.85 4.04 598.55 5.78 598.69 C5.78 598.69 7.06 598.6 7.49 598.47 Z" class="st34"/>
			</g>
			<g id="shape1482-281" v:mID="1482" v:groupContext="shape" v:layerMember="4" transform="translate(37.7872,-1.04183)">
				<title>Sheet.1482</title>
				<path d="M1.59 607.64 L3.15 608.44 L2.97 608.79 L2.79 608.86 L2.24 608.99 L0.8 611.74 C0.02 611.96 0 611.32 0 611.32
							 L1.45 608.73 L1.45 608.51 L1.31 608.23 L1.59 607.64 ZM4.35 608.05 L3.79 608.17 C3.79 608.17 3.84 608.66
							 3.51 609.08 C3.17 609.49 3.23 610.44 3.23 610.44 L3.31 611.78 C3.33 611.9 3.43 612 3.56 612 C3.71 612
							 3.84 611.88 3.83 611.74 C3.82 611.49 3.62 611.47 3.47 611.47 C3.41 611.47 3.42 610.26 3.42 610.26 C3.42
							 610.26 3.49 609.65 3.77 609.3 C4.05 608.95 4.36 608.34 4.35 608.05 ZM1.59 598.24 L3.15 597.35 L2.97
							 597.09 L2.79 597.02 L2.24 596.89 L0.8 594.14 C0.02 593.92 0 594.56 0 594.56 L1.45 597.15 L1.45 597.37
							 L1.31 597.65 L1.59 598.24 ZM4.35 597.74 L3.79 597.63 C3.79 597.63 3.84 597.13 3.51 596.71 C3.17 596.3
							 3.23 595.36 3.23 595.36 L3.31 594.01 C3.33 593.89 3.43 593.79 3.56 593.79 C3.71 593.79 3.84 593.91 3.83
							 594.05 C3.82 594.3 3.62 594.32 3.47 594.32 C3.41 594.32 3.42 595.54 3.42 595.54 C3.42 595.54 3.49 596.15
							 3.77 596.49 C4.05 596.84 4.36 597.45 4.35 597.74 Z" class="st39"/>
			</g>
			<g id="shape1483-283" v:mID="1483" v:groupContext="shape" v:layerMember="4" transform="translate(39.2734,-3.49538)">
				<title>Sheet.1483</title>
				<path d="M10.43 602.42 C10.75 602.95 11.91 604.76 11.91 605.34 C11.91 605.71 10.75 607.73 10.43 608.26 C9.94 609.06
							 9.08 610.68 7.79 611.4 C7.43 611.61 6.96 611.82 6.53 612 C6.67 611.85 7.11 610.88 6.24 609.65 C6.24
							 609.65 6.18 609.18 4.87 609.65 L2.12 610.85 C2.12 610.85 1.22 611.23 0.24 610.58 C0.24 610.58 -0.3 610.11
							 0.24 609.23 C0.24 609.23 2.72 607.92 2.64 605.34 C2.72 602.76 0.24 601.45 0.24 601.45 C-0.3 600.57 0.24
							 600.1 0.24 600.1 C1.22 599.45 2.12 599.84 2.12 599.84 L4.87 601.03 C6.18 601.5 6.24 601.03 6.24 601.03
							 C7.11 599.8 6.66 599.16 6.52 599 C6.95 599.19 7.38 599.38 7.75 599.59 C9.03 600.31 9.94 601.62 10.43
							 602.42 Z" class="st34"/>
			</g>
			<g id="shape1484-285" v:mID="1484" v:groupContext="shape" v:layerMember="4" transform="translate(47.7453,-6.13501)">
				<title>Sheet.1484</title>
				<path d="M0 611.51 L0.23 612 C3.72 609.17 3.43 608 3.43 608 C3.65 608.86 0 611.51 0 611.51 ZM0 604.6 L0.23 604.12
							 C3.72 606.95 3.43 608.11 3.43 608.11 C3.65 607.26 0 604.6 0 604.6 Z" class="st40"/>
			</g>
			<g id="shape1485-287" v:mID="1485" v:groupContext="shape" v:layerMember="4" transform="translate(29.0027,-2.58528)">
				<title>Sheet.1485</title>
				<path d="M20.75 601.47 C21.2 602.21 22.18 603.93 22.18 604.56 C22.18 605.19 21.36 606.51 21.01 607.05 C20.38 608.03
							 19.35 609.77 18.06 610.49 C16.77 611.21 14.64 611.88 14.64 611.88 C13.86 612.15 13.49 611.88 13.49 611.88
							 L12.34 611.24 C11.33 611.71 8.11 611.38 7.69 611.24 C7.27 611.1 5.98 611.02 5.98 611.02 C4.24 611.16
							 1.21 610.85 1.21 610.85 C-0.08 610.68 0 609.58 0 609.58 L0 599.55 C0 599.55 -0.08 598.44 1.21 598.27
							 C1.21 598.27 4.24 597.97 5.98 598.1 C5.98 598.1 7.27 598.02 7.69 597.88 C8.11 597.74 11.33 597.41 12.34
							 597.88 L13.49 597.25 C13.49 597.25 13.86 596.97 14.64 597.25 C14.64 597.25 16.77 597.91 18.06 598.63
							 C19.35 599.35 20.25 600.66 20.75 601.47 Z" class="st36"/>
			</g>
			<g id="shape1486-289" v:mID="1486" v:groupContext="shape" v:layerMember="4" transform="translate(46.1479,-7.67944)">
				<title>Sheet.1486</title>
				<path d="M0 612 L1.79 611.41 C2.68 611.08 3.07 609.61 3.07 609.61 C2.84 608.59 1.83 607.75 1.83 607.75 L0 607.16
							 L0 612 Z" class="st33"/>
			</g>
			<g id="shape1487-291" v:mID="1487" v:groupContext="shape" v:layerMember="4" transform="translate(3.77652,-5.99106)">
				<title>Sheet.1487</title>
				<path d="M35.66 603.92 C41.1 607.9 35.66 611.75 35.66 611.75 C44.8 611.36 45.07 607.9 45.07 607.9 C43.38 603.78 35.66
							 603.92 35.66 603.92 ZM8.69 610.7 C9.25 612.47 7.4 611.92 7.4 611.92 C5.88 611.81 4.34 611.41 3.36 611.09
							 C2.12 610.67 -1.02 608.76 0.33 606.88 C2.03 604.49 6.5 604.05 6.5 604.05 C9.64 603.44 8.69 605.33 8.69
							 605.33 C7.96 608.6 8.69 610.7 8.69 610.7 Z" class="st41"/>
			</g>
			<g id="shape1488-293" v:mID="1488" v:groupContext="shape" v:layerMember="4" transform="translate(23.0304,-4.25476)">
				<title>Sheet.1488</title>
				<path d="M12.59 602.57 C12.59 602.57 13.63 603.57 13.8 604.62 L13.8 607.84 C13.63 608.89 12.59 609.89 12.59 609.89
							 C12.59 609.89 10.52 611.88 8.78 611.99 C7.04 612.1 4.68 610.69 4.68 610.69 C4.68 610.69 1.59 608.72
							 0.87 608.37 C0.21 608.04 0 607.15 0 607.15 L0 605.31 C0 605.31 0.21 604.42 0.87 604.1 C1.59 603.74 4.68
							 601.77 4.68 601.77 C4.68 601.77 7.04 600.36 8.78 600.47 C10.52 600.58 12.59 602.57 12.59 602.57 Z"
						class="st34"/>
			</g>
			<g id="shape1489-295" v:mID="1489" v:groupContext="shape" v:layerMember="4" transform="translate(23.2144,-3.49627)">
				<title>Sheet.1489</title>
				<path d="M6.25 606.72 C7.11 606.72 7.81 606.05 7.86 605.2 C7.86 605.23 7.87 605.26 7.87 605.29 C7.87 606.18 7.14
							 606.89 6.25 606.89 C5.35 606.89 4.62 606.18 4.62 605.29 C4.62 605.26 4.63 605.23 4.63 605.2 C4.68 606.05
							 5.38 606.72 6.25 606.72 ZM18.63 605.4 L25.63 605.4 C25.55 605.82 24.72 608.83 16.22 609.19 C16.22 609.19
							 18.48 607.6 18.63 605.4 ZM23.98 611.33 C25.27 610.61 26.01 609.29 26.5 608.49 C26.82 607.96 28.2 605.81
							 27.96 605.47 C25.45 608.62 16.22 610.49 16.22 610.49 C17.15 611.24 18.18 610.85 18.18 610.85 L20.92
							 609.65 C22.24 609.18 22.3 609.65 22.3 609.65 C23.19 611.05 22.72 611.85 22.59 612 C23.02 611.82 23.62
							 611.53 23.98 611.33 ZM0 607.23 C0.34 607.01 1.16 607.15 1.5 607.32 C10.48 611.94 13.42 607.23 13.42
							 607.23 C10.06 612.51 1.81 607.66 1.38 607.44 C0.95 607.21 0 607.23 0 607.23 Z" class="st35"/>
			</g>
			<g id="shape1490-297" v:mID="1490" v:groupContext="shape" v:layerMember="4" transform="translate(46.25,-5.35722)">
				<title>Sheet.1490</title>
				<path d="M1.68 610.93 a0.907841 0.619916 -25.05 1 1 -1.63803 0.783118 a0.907841 0.619916 -25.05 1 1 1.63803 -0.783118
							 ZM1.68 603.63 a0.907841 0.619916 25.05 1 1 -1.63803 -0.783118 a0.907841 0.619916 25.05 1 1 1.63803 0.783118
							 Z" class="st42"/>
			</g>
			<g id="shape1491-299" v:mID="1491" v:groupContext="shape" v:layerMember="4" transform="translate(45.1419,0)">
				<title>Sheet.1491</title>
				<path d="M1.21 606.38 C1.17 605.83 1.36 605.72 1.36 605.72 L1.96 605.39 C2.29 605.31 2.63 605.76 2.63 605.76 C2.85
							 606.16 2.63 606.38 2.63 606.38 C1.99 607.34 2.14 608.56 2.14 608.56 C2.66 609.17 1.08 611.44 1.08 611.44
							 C-0.18 612.7 0.01 611.44 0.01 611.44 C0.23 608.52 0.65 608.01 0.65 608.01 L1.36 608.16 C1.73 608.08
							 1.88 607.31 1.88 607.31 L2.14 606.57 C2.14 606.57 1.78 606.41 1.65 606.38 C1.54 606.37 1.21 606.38 1.21
							 606.38 ZM1.21 597.46 C1.17 598.01 1.36 598.13 1.36 598.13 L1.96 598.46 C2.29 598.53 2.63 598.09 2.63
							 598.09 C2.85 597.68 2.63 597.46 2.63 597.46 C1.99 596.5 2.14 595.28 2.14 595.28 C2.66 594.67 1.08 592.4
							 1.08 592.4 C-0.18 591.15 0.01 592.4 0.01 592.4 C0.23 595.32 0.65 595.84 0.65 595.84 L1.36 595.69 C1.73
							 595.76 1.88 596.54 1.88 596.54 L2.14 597.28 C2.14 597.28 1.78 597.44 1.65 597.46 C1.54 597.48 1.21 597.46
							 1.21 597.46 Z" class="st43"/>
			</g>
			<g id="shape1492-301" v:mID="1492" v:groupContext="shape" v:layerMember="4" transform="translate(45.2594,-0.30709)">
				<title>Sheet.1492</title>
				<path d="M0.74 608.52 C0.61 608.57 0.45 608.86 0.45 608.86 C-0.24 611.87 0.07 612 0.07 612 C0.54 612.09 0.74 609.87
							 0.74 609.87 C0.93 608.78 0.74 608.52 0.74 608.52 ZM0.74 595.94 C0.61 595.89 0.45 595.6 0.45 595.6 C-0.24
							 592.59 0.07 592.46 0.07 592.46 C0.54 592.37 0.74 594.59 0.74 594.59 C0.93 595.68 0.74 595.94 0.74 595.94
							 Z" class="st44"/>
			</g>
			<g id="shape1493-303" v:mID="1493" v:groupContext="shape" v:layerMember="4" transform="translate(1.13528,-4.76943)">
				<title>Sheet.1493</title>
				<path d="M22.08 605.2 C22.42 605.42 23.24 605.28 23.58 605.11 C32.56 600.5 35.5 605.2 35.5 605.2 C32.14 599.92 23.89
							 604.78 23.46 605 C23.03 605.22 22.08 605.2 22.08 605.2 ZM0.16 608.57 C0.16 608.57 7.52 610.27 10.6 610.78
							 C11.3 610.89 15.3 611.06 15.3 611.06 C14.12 611.5 13.43 612.32 10.96 611.87 C7.32 611.21 0.16 608.57
							 0.16 608.57 ZM0 605.32 C8.28 603.04 9.87 602.35 11.24 602.93 C11.77 603.16 15.3 602.26 15.3 602.26 C13.95
							 601.99 12.51 601.54 11.46 601.62 C8.77 601.85 0 605.32 0 605.32 ZM45.88 600.86 C47.17 601.58 48.12 602.85
							 48.61 603.65 C48.94 604.18 50.28 606.28 50.04 606.61 C47.53 603.47 38.38 601.38 38.38 601.38 C39.36
							 600.73 40.25 601.11 40.25 601.11 L43 602.3 C44.32 602.77 44.38 602.3 44.38 602.3 C45.25 601.08 44.79
							 600.43 44.66 600.28 C45.09 600.46 45.52 600.66 45.88 600.86 Z" class="st40"/>
			</g>
			<g id="shape1494-305" v:mID="1494" v:groupContext="shape" v:layerMember="4" transform="translate(22.8823,-4.25476)">
				<title>Sheet.1494</title>
				<path d="M0 606.1 L13.8 606.1 L13.8 607.84 C13.63 608.89 12.59 609.89 12.59 609.89 C12.59 609.89 10.52 611.88 8.78
							 611.99 C7.04 612.1 4.68 610.69 4.68 610.69 C4.68 610.69 1.59 608.72 0.87 608.37 C0.21 608.04 0 607.15
							 0 607.15 L0 606.1 Z" class="st35"/>
			</g>
			<g id="shape1495-307" v:mID="1495" v:groupContext="shape" v:layerMember="4" transform="translate(37.535,-9.26906)">
				<title>Sheet.1495</title>
				<path d="M3.12 611.18 a0.458598 0.452786 0 1 1 -0.917196 0 a0.458598 0.452786 0 1 1 0.917196 0 ZM0.42 612 L1.27 612
							 L1.7 611.28 L1.27 610.55 L0.42 610.55 L0 611.28 L0.42 612 Z" class="st45"/>
			</g>
			<g id="shape1496-309" v:mID="1496" v:groupContext="shape" v:layerMember="4" transform="translate(27.8389,-8.44324)">
				<title>Sheet.1496</title>
				<path d="M3.25 610.24 A1.62259 1.60203 0 1 1 0 610.24 A1.62259 1.60203 0 1 1 3.25 610.24 ZM9.81 611.72 C9.81 611.57
							 9.68 611.45 9.52 611.45 C9.37 611.45 9.24 611.57 9.24 611.72 C9.24 611.88 9.37 612 9.52 612 C9.68 612
							 9.81 611.88 9.81 611.72 ZM9.81 609.23 C9.81 609.08 9.68 608.95 9.52 608.95 C9.37 608.95 9.24 609.08
							 9.24 609.23 C9.24 609.38 9.37 609.51 9.52 609.51 C9.68 609.51 9.81 609.38 9.81 609.23 ZM12.13 610.33
							 L12.14 610.38 L12.32 610.38 L12.45 610.39 L12.55 610.32 L12.44 610.3 L12.3 610.33 L12.18 610.29 L12.13
							 610.33 ZM10.21 611.02 L10.88 611.02 L11.22 610.45 L10.88 609.87 L10.21 609.87 L9.87 610.45 L10.21 611.02
							 Z" class="st46"/>
			</g>
			<g id="shape1497-311" v:mID="1497" v:groupContext="shape" v:layerMember="4" transform="translate(28.1163,-7.0016)">
				<title>Sheet.1497</title>
				<path d="M2.28 609.57 a0.0978222 0.0965825 0 1 1 -0.195644 0 a0.0978222 0.0965825 0 1 1 0.195644 0 ZM0.55 607.86
							 a0.0978222 0.0965825 0 1 1 -0.195644 0 a0.0978222 0.0965825 0 1 1 0.195644 0 ZM0.55 609.57 a0.0978222
							 0.0965825 0 1 1 -0.195644 0 a0.0978222 0.0965825 0 1 1 0.195644 0 ZM2.28 607.87 a0.0987197 0.0974685
							 0 1 1 -0.197439 0 a0.0987197 0.0974685 0 1 1 0.197439 0 ZM1.42 609.92 a0.0978222 0.0965825 0 1 1 -0.195644
							 0 a0.0978222 0.0965825 0 1 1 0.195644 0 ZM1.42 607.51 a0.0978222 0.0965825 0 1 1 -0.195644 0 a0.0978222
							 0.0965825 0 1 1 0.195644 0 ZM2.63 608.72 a0.0978222 0.0965825 0 1 1 -0.195644 0 a0.0978222 0.0965825
							 0 1 1 0.195644 0 ZM0.2 608.72 a0.0978222 0.0965825 0 1 1 -0.195644 0 a0.0978222 0.0965825 0 1 1 0.195644
							 0 ZM9.43 610.28 C9.43 610.18 9.35 610.1 9.25 610.1 C9.15 610.1 9.07 610.18 9.07 610.28 C9.07 610.38
							 9.15 610.46 9.25 610.46 C9.35 610.46 9.43 610.38 9.43 610.28 ZM9.43 607.79 C9.43 607.69 9.35 607.61
							 9.25 607.61 C9.15 607.61 9.07 607.69 9.07 607.79 C9.07 607.89 9.15 607.97 9.25 607.97 C9.35 607.97 9.43
							 607.89 9.43 607.79 ZM12.03 606.45 a0.575267 0.678736 0 1 1 -1.15053 0 a0.575267 0.678736 0 1 1 1.15053
							 0 ZM12.06 611.32 a0.575267 0.678736 0 1 1 -1.15053 0 a0.575267 0.678736 0 1 1 1.15053 0 ZM10.04 609.39
							 L10.49 609.39 L10.72 609.01 L10.49 608.62 L10.04 608.62 L9.82 609.01 L10.04 609.39 Z" class="st45"/>
			</g>
			<g id="shape1498-313" v:mID="1498" v:groupContext="shape" v:layerMember="4" transform="translate(39.2438,-7.33741)">
				<title>Sheet.1498</title>
				<path d="M0.67 609.23 C0.67 609.39 0.77 609.51 0.9 609.54 C0.88 609.54 0.87 609.55 0.85 609.55 C0.71 609.55 0.58
							 609.41 0.58 609.23 C0.58 609.06 0.71 608.91 0.85 608.91 C0.87 608.91 0.88 608.92 0.9 608.92 C0.77 608.95
							 0.67 609.08 0.67 609.23 ZM0.09 611.68 C0.09 611.84 0.19 611.97 0.32 611.99 C0.3 611.99 0.29 612 0.27
							 612 C0.12 612 0 611.86 0 611.68 C0 611.51 0.12 611.36 0.27 611.36 C0.29 611.36 0.3 611.37 0.32 611.37
							 C0.19 611.4 0.09 611.53 0.09 611.68 ZM0.09 606.75 C0.09 606.91 0.19 607.04 0.32 607.06 C0.3 607.06 0.29
							 607.07 0.27 607.07 C0.12 607.07 0 606.93 0 606.75 C0 606.58 0.12 606.44 0.27 606.44 C0.29 606.44 0.3
							 606.44 0.32 606.45 C0.19 606.47 0.09 606.6 0.09 606.75 Z" class="st47"/>
			</g>
			<g id="shape1499-315" v:mID="1499" v:groupContext="shape" v:layerMember="4" transform="translate(39.3192,-7.31526)">
				<title>Sheet.1499</title>
				<path d="M0.54 611.68 a0.270133 0.318102 0 1 1 -0.540266 0 a0.270133 0.318102 0 1 1 0.540266 0 ZM0.55 606.73 a0.270133
							 0.318102 0 1 1 -0.540266 0 a0.270133 0.318102 0 1 1 0.540266 0 Z" class="st48"/>
			</g>
			<g id="shape1500-317" v:mID="1500" v:groupContext="shape" v:layerMember="4" transform="translate(23.0304,-4.25476)">
				<title>Sheet.1500</title>
				<path d="M12.59 602.57 C12.59 602.57 13.63 603.57 13.8 604.62 L13.8 607.84 C13.63 608.89 12.59 609.89 12.59 609.89
							 C12.59 609.89 10.52 611.88 8.78 611.99 C7.04 612.1 4.68 610.69 4.68 610.69 C4.68 610.69 1.59 608.72
							 0.87 608.37 C0.21 608.04 0 607.15 0 607.15 L0 605.31 C0 605.31 0.21 604.42 0.87 604.1 C1.59 603.74 4.68
							 601.77 4.68 601.77 C4.68 601.77 7.04 600.36 8.78 600.47 C10.52 600.58 12.59 602.57 12.59 602.57 Z"
						class="st36"/>
			</g>
		</g>
		<g id="group1501-319" transform="translate(81,-353.877)" v:mID="1501" v:groupContext="group">
			<v:custProps>
				<v:cp v:nameU="AssetNumber" v:lbl="Asset Number" v:prompt="" v:type="0" v:format="" v:sortKey="Asset"
						v:invis="false" v:ask="false" v:langID="1033" v:cal="0"/>
				<v:cp v:nameU="SerialNumber" v:lbl="Serial Number" v:prompt="" v:type="0" v:format="" v:sortKey="Asset"
						v:invis="false" v:ask="false" v:langID="1033" v:cal="0"/>
				<v:cp v:nameU="Location" v:lbl="Location" v:prompt="" v:type="0" v:format="" v:sortKey="Asset" v:invis="false"
						v:ask="false" v:langID="1033" v:cal="0"/>
				<v:cp v:nameU="Building" v:lbl="Building" v:prompt="" v:type="0" v:format="" v:sortKey="Asset" v:invis="false"
						v:ask="false" v:langID="1033" v:cal="0"/>
				<v:cp v:nameU="Room" v:lbl="Room" v:prompt="" v:type="0" v:format="" v:sortKey="Asset" v:invis="false"
						v:ask="false" v:langID="1033" v:cal="0"/>
				<v:cp v:nameU="Manufacturer" v:lbl="Manufacturer" v:prompt="" v:type="0" v:format="" v:sortKey="Equipment"
						v:invis="false" v:ask="false" v:langID="1033" v:cal="0"/>
				<v:cp v:nameU="ProductNumber" v:lbl="Product Number" v:prompt="" v:type="0" v:format="" v:sortKey="Equipment"
						v:invis="false" v:ask="false" v:langID="1033" v:cal="0"/>
				<v:cp v:nameU="PartNumber" v:lbl="Part Number" v:prompt="" v:type="0" v:format="" v:sortKey="Equipment"
						v:invis="false" v:ask="false" v:langID="1033" v:cal="0"/>
				<v:cp v:nameU="ProductDescription" v:lbl="Product Description" v:prompt="" v:type="0" v:format=""
						v:sortKey="Equipment" v:invis="false" v:ask="false" v:langID="1033" v:cal="0"/>
				<v:cp v:nameU="NetworkName" v:lbl="Network Name" v:prompt="" v:type="0" v:format="" v:sortKey="Network"
						v:invis="false" v:ask="false" v:langID="1033" v:cal="0"/>
				<v:cp v:nameU="IPAddress" v:lbl="IP Address" v:prompt="" v:type="0" v:format="" v:sortKey="Network" v:invis="false"
						v:ask="false" v:langID="1033" v:cal="0"/>
				<v:cp v:nameU="SubnetMask" v:lbl="Subnet Mask" v:prompt="" v:type="0" v:format="" v:sortKey="Network"
						v:invis="false" v:ask="false" v:langID="1033" v:cal="0"/>
				<v:cp v:nameU="AdminInterface" v:lbl="Administrative Interface" v:prompt="" v:type="0" v:format=""
						v:sortKey="Network" v:invis="false" v:ask="false" v:langID="1033" v:cal="0"/>
				<v:cp v:nameU="NumberofPorts" v:lbl="Number of Ports" v:prompt="" v:type="0" v:format="" v:sortKey="Network"
						v:invis="false" v:ask="false" v:langID="1033" v:cal="0"/>
				<v:cp v:nameU="CommunityString" v:lbl="Community String" v:prompt="" v:type="0" v:format="" v:sortKey="Network"
						v:invis="false" v:ask="false" v:langID="1033" v:cal="0"/>
				<v:cp v:nameU="NetworkDescription" v:lbl="Network Description" v:prompt="" v:type="0" v:format=""
						v:sortKey="Network" v:invis="false" v:ask="false" v:langID="1033" v:cal="0"/>
				<v:cp v:nameU="MACAddress" v:lbl="MAC Address" v:prompt="" v:type="0" v:format="" v:sortKey="Network"
						v:invis="false" v:ask="false" v:langID="1033" v:cal="0"/>
				<v:cp v:nameU="CPU" v:lbl="CPU" v:prompt="" v:type="0" v:format="" v:sortKey="Workstation" v:invis="false"
						v:ask="false" v:langID="1033" v:cal="0"/>
				<v:cp v:nameU="Memory" v:lbl="Memory" v:prompt="" v:type="0" v:format="" v:sortKey="Workstation" v:invis="false"
						v:ask="false" v:langID="1033" v:cal="0"/>
				<v:cp v:nameU="OperatingSystem" v:lbl="Operating System" v:prompt="" v:type="0" v:format="" v:sortKey="Workstation"
						v:invis="false" v:ask="false" v:langID="1033" v:cal="0"/>
				<v:cp v:nameU="HardDriveSize" v:lbl="Hard Drive Capacity" v:prompt="" v:type="0" v:format=""
						v:sortKey="Workstation" v:invis="false" v:ask="false" v:langID="1033" v:cal="0"/>
				<v:cp v:nameU="ShapeClass" v:lbl="ShapeClass" v:prompt="" v:type="0" v:format="" v:sortKey="" v:invis="true"
						v:ask="false" v:langID="1033" v:cal="0" v:val="VT4(Equipment)"/>
				<v:cp v:nameU="ShapeType" v:lbl="ShapeType" v:prompt="" v:type="0" v:format="" v:sortKey="" v:invis="true"
						v:ask="false" v:langID="1033" v:cal="0" v:val="VT4(MobilePhone)"/>
			</v:custProps>
			<v:userDefs>
				<v:ud v:nameU="visVersion" v:prompt="" v:val="VT0(15):26"/>
				<v:ud v:nameU="ShapeClass" v:prompt="" v:val="VT0(5):26"/>
				<v:ud v:nameU="SolSH" v:prompt="" v:val="VT15({BF0433D9-CD73-4EB5-8390-8653BE590246}):41"/>
				<v:ud v:nameU="visLegendShape" v:prompt="" v:val="VT0(2):26"/>
			</v:userDefs>
			<title>Smart phone</title>
			<g id="shape1502-320" v:mID="1502" v:groupContext="shape" transform="translate(4.75212,0)">
				<title>Sheet.1502</title>
				<path d="M0 610.75 C0 611.19 0.36 611.6 0.8 611.65 C0.8 611.65 3.4 612 5.32 612 C7.25 612 9.85 611.65 9.85 611.65
							 C10.29 611.6 10.65 611.19 10.65 610.75 L10.65 593.1 C10.65 592.66 10.29 592.25 9.85 592.19 C9.85 592.19
							 7.3 591.85 5.32 591.85 C3.4 591.85 0.8 592.19 0.8 592.19 C0.36 592.25 0 592.66 0 593.1 L0 610.75 Z"
						class="st49"/>
			</g>
			<g id="shape1503-322" v:mID="1503" v:groupContext="shape" transform="translate(5.55577,-2.47478)">
				<title>Sheet.1503</title>
				<v:userDefs>
					<v:ud v:nameU="SurroundingRegionColor" v:prompt="" v:val="VT5(1)"/>
				</v:userDefs>
				<rect x="0" y="597.186" width="9.04279" height="14.8145" class="st49"/>
			</g>
			<g id="shape1504-324" v:mID="1504" v:groupContext="shape" transform="translate(8.41622,-1.0052)">
				<title>Sheet.1504</title>
				<v:userDefs>
					<v:ud v:nameU="SurroundingRegionColor" v:prompt="" v:val="VT5(1)"/>
				</v:userDefs>
				<path d="M0.72 611.64 a0.358369 0.358369 -180 1 0 -0.716738 0 a0.358369 0.358369 -180 1 0 0.716738 0 ZM2.02 611.64
							 a0.358369 0.358369 -180 1 0 -0.716738 0 a0.358369 0.358369 -180 1 0 0.716738 0 ZM3.32 611.64 a0.358579
							 0.358579 -180 1 0 -0.717158 0 a0.358579 0.358579 -180 1 0 0.717158 0 Z" class="st50"/>
				<path d="M0.33 594.5 L2.99 594.5" class="st51"/>
			</g>
		</g>
		<g id="shape1505-327" v:mID="1505" v:groupContext="shape" transform="translate(124.75,-366.462)">
			<title>Sheet.1505</title>
			<path d="M0 612 L32.15 612" class="st2"/>
		</g>
		<g id="shape1506-332" v:mID="1506" v:groupContext="shape" transform="translate(83.8296,-306.421)">
			<title>Sheet.1506</title>
			<desc>Delivery Person</desc>
			<v:textBlock v:margins="rect(4,4,4,4)"/>
			<v:textRect cx="28.3465" cy="602.646" width="56.7" height="18.7087"/>
			<rect x="0" y="593.291" width="56.6929" height="18.7087" class="st26"/>
			<text x="11.74" y="599.65" class="st27" v:langID="1033"><v:paragraph v:horizAlign="1"/><v:tabList/>Delivery <tspan
						x="14.31" dy="1.2em" class="st17">Person</tspan></text>		</g>
	</g>
</svg>
